<mxfile host="app.diagrams.net" agent="Mozilla/5.0 (Windows NT 10.0; Win64; x64) AppleWebKit/537.36 (KHTML, like Gecko) Chrome/136.0.0.0 Safari/537.36" version="27.0.1">
  <diagram name="PÃ¡gina-1" id="DniT7YanYrnJt1MqH_1d">
    <mxGraphModel dx="1076" dy="476" grid="1" gridSize="10" guides="1" tooltips="1" connect="1" arrows="1" fold="1" page="1" pageScale="1" pageWidth="827" pageHeight="1169" math="0" shadow="0">
      <root>
        <mxCell id="0" />
        <mxCell id="1" parent="0" />
        <mxCell id="C_gVZf2LW0LvBU3VUOGp-1" value="" style="shape=image;verticalLabelPosition=bottom;labelBackgroundColor=default;verticalAlign=top;aspect=fixed;imageAspect=0;image=data:image/png,iVBORw0KGgoAAAANSUhEUgAAA8sAAAGhCAYAAABWASa6AAAAAXNSR0IArs4c6QAAAARnQU1BAACxjwv8YQUAAAAJcEhZcwAADsMAAA7DAcdvqGQAAKSjSURBVHhe7P17eFT13e//P60W3RwmiBEjiElIQBEEUlCKAkqHuOEKrV9MgVvcQu0toIj10Eq5Eby8BNmIZ0WUw75b9JbegJGfLblgN6RUPCAWGkARCwlMimCIEZPhsIV6+P2x1sys+cyaycxkAjm8Htc1l876fGatNWutDOu93p/DOZmZmd9nZ2fz+eef8/XXXyMiIiIiIiLS2v3AXCAiIiIiIiLS2ilYFhERERERETEoWBYRERERERExKFgWERERERERMShYFhERERERETEoWBYRERERERExKFgWERERERERMShYFhERERERETGck5mZ+X3fvtkcOXKEU6dOmeVnXW3tt+YiERERERERkUalzLKIiIiIiIiIQcGyiIiIiIiIiEHBsoiIiIiIiIih1fVZ9ty2nl6d/saOFx8h+rcdziX3ziCrY+D9CXz/5+ccORxeK6jLY/T+92toTwV75k7Hb5Y3tkkP0K+gE4cWzaFms1nYcO0XPk9Op+3sufNVTpuFQT1JX34PXT2B9/5G25/GctfSJxmbE3pfXvQQUxc7a6RaLvPfnMqgtMD7Y2xd8BizSsJrtTrTplNamAl1Zcy/ZSWlZnkzl9x1NpzHR8zgqs8WMubTTWahOA2bSI/pA2iLj4pxz3LcLJemYdID9CvIAn99/7akSJeV/GvKdYTuKPz8cGlfznX+ux5PHWlZOjzG2hFX8cnGn/PwMbOwIe7k5TGF5AIcKiL/w+VmBRFpJpRZdrWJIy+OYuvcUWwtrjALxdVeau68j53j7mNnsc8sbBZemfIQXu9DeBeUnaEb7HJm3WJvs6jSLJQm5q6lT1L65gS8ZkGCkrnOpl47g2s7VLChFQfKbWbMpd/qB2hvFsgZ0VKO/3l/yuKCR7O44FGXIPjwBH74qF3+p3KjUM6EjHk7mVNaQp5Z0FiOPcKGQ+24dsQippplSRvO4yMKyT1URP7aUQqURZo5BcupcPgRds8dxdazkVUWScS06ZSWPhnxemterlnz7Fm8yAomk80qR/mOodcjzM83P9R0/eTKN/h51xN8uHE6S8xCW/uFz9NvteO1fCJtzEqtxeZX2TfuPnYqqxyfYRPp4bx2Vs8lfZhZqRGseNZ6uHomssoiMSz5cCEfHsvh5yMe4ydmYTI6DOeqDif4cI+CZJGWQMGySKtzjK0L7OymndVuP3hqSrKmTUIg2PY+hNe7hK11QMUGx7Lm1NT9Tsb2asfxPS9FaSJ4E11XP09Olo+KcXbLjnH3sfNVuHhGT7OySLhJD9Bv+gDY9lLo2hn3Gkxs/hlkkfht4uGtf+N4h2u498rhZmHiOnTS349IC9IM+izfQdacQigexecXv0H/a9vZJeH9g8//n2/Q/9oqo8/wnWTNKaTdhwvZ/X+t5ovBPstFkPvv1wR/0I4Uj8L39+AHQ360iEEFGe59loN9lW21sfpCJ9gPOpZgnzynyD7CbWbMpdfAYCdi8BWzc8afjfKjRr++m+i6uoC2215i38K94Oyz/CpkOrZbU3wfh1YEPxhSbx/qVPdv9rKkdKTVNwiAStZ4F/GKs0qgH2yQS52A/Am8NTOPqlh9Sc31VWzAOyWUB71r6ZOMTTf63MZa77TplBZ2it5n2f5s6B9gs3+z3f+5ZgPeNZeE1T2+ZQk3z7abFEbZjnfeI8wa3CHYf9Z6f5Q13g1c7uxX7daPuJ5jEVRfvfrKHcx+v2HfMYzjuERZV+C7Bzm3G3HcDebxML9DA6+zn1z5Bv/Rq4o31rpnldsvDATK9WdRrbqh9ycdf+MEfg967mPPnVVcvLqAdNd61u8DxffxxSXO3xf3fTB/g8xtBkSvZ20vsC+RHNs1fxdj9YU165r7P2wiPab34KtFc/h6tOO4xVpnvSYz6s1ZDAyOUeBn24J+rLf/DjPm7WTyVR+z7JaD5JeOJ7DJ2i3zeXH2ssCHUsj+HSbWd0rg+Dv/7ThSYPVHtoX9WxHoqxxg/LtkSeA6iziXAca/K3Z/5HP+lMV5242qbgZs5Oufdm5gn+XY5zwgb+kBRjt+z8LO+bQS5hTCugXVDJl5HR0pZ513NRmB9VasYu6UmcACbi8dD0XZlHTZyeTBgWNWzjpvPmWh1Qfrhs5C5H7lLT3AaFYxd0037p15HYFbF19RNq8Zv1cZ85zbi7xm67+2zf0xRX6H+rYJQP7rYfvuth6nqdeu5+ddK6L+3satyyJKBmXwYcr7QYvI2dBsMsuXFKynf89P2DF3FFvnLsRXm0Ovex/jfLNiXK4i99+voub/WP2Sd3x4gksK3uCSLma9egSbX49iz36z0KHLY/SeM4Ms/mbv/yi2zn0Jhiex/3Ym4GSxI4sU0Ue4J+nLn7cD4UC9YmqyChrQPLMHmdN78NUia317tvlJL0imud5NdF19D12PFgf3f8826Do9mXUFmtyOJDcsc7iHvKWOHGn+BN7qv8fINmYytnQ6dznXFae7lj5JaWEm5UWO7OyOXiyZZtZMFS9L7oYXgvv/EGsqOjBopktz4pyRlM7MZXcgc2xnjevbt9LDR81FQCZjS6fS+5Ml9nY3UJ6WxyzHsfXOe8QOvgP7toHynJGUOo9/vMcsmBG2s8GuvCwptR9EBNazoAwGT43YZv1ymf/mk/ZDAWP/A1n2kpXcHDzmdnDsOA9hTcVTfJ3BcLyXtYNDO6LcuN1EWhbg2x0RpIazs8+dtrMn8HuwaDsMvId+C28Kr+oZQK/VQzll/53vLPbRduA9dJ0UXi294Hl6pb9j/w2/xCF/FjnGb0v7hcZvkL3NHmEZ78BvFRwKbHPcfVRSYP8e/JlDwd8Jvx0sOX77nIFTsPn1fVSYP4kObWbMjfgNrfBlkRPR/NhD1+nPc2lNIOtaTI1nAL3MYxaP/Ne5t3QWA3mfZd5s5nqzmetdBGNfJ8NZL+06JpeOomaBXaeonI6DZ3F7PX+/DeK5KMa/CQkcf1vbgffQr4BgvYh/KwLNr8e9xKF6+i3Ve53ZgXIoMx5Yp4+KcQ15AJsCcZ3zBdxeeoDR6Y46C96HwbOYs3SBY2WdGXJ3Z971rsJHLkPenE7uJ/NZtsUPOQPC+vdmFR6wAlNvNnO989lWl8voNx3bnFbCnNLxdNwy396nbJZtgYEzD0ReZznjmTOzM+8G6/nJKtzJKMe/O3lLDzB5cDXrjP2/d95k55rqubZn8ppjG1ZQGzhm2cw1Aty4tmkHyji+59wF1QwJO67hlnxWAeTQP9F7QRFp0ZpNsByetd3EkfcqoONVdEzmR60j1Diyuqf+7waO0I6s4XeaNVPCM/wa2kdknTdx5PVoWehoepI+NAt8xe4Z3YBJBXT1+Dm0yHkj82cOFfvAM4CLjRvfuHjgK8dT+tML36EGD11HJ3bj2GbGUNLxUeHIJJxe+BqH/ImvC3KZPyLTJQNZylTn+5KV3BxWXs6sjZVAJnnmzUF98icwKsdlBOPFi6JmBxuulKlGNveVNWUcpwO9bzD7GleyxtnMePEeyoGMLma9cN4unYBjfLkvfHl50UOOjG0pZRVA+iV2c20v4wZ34PiWlY4sdSlTiyoh5/pQIJ/CY+addz25VLLGeTxKVvLClmPh24zHtJEMSjvG1gXOzK+9/2l5jEv02kjldUag3xuUfxal39uk3qQDNbvNrFy44N+cM3u4+VUqt/kha2jEQ6qaYkeQsWI3NUDbS4wm3f7t7An+De/Fv9cfHnQNm8ilWVBTHB7MVm7z03ZgQShTH/ytCg9sTi98tpECnZu4eKCHk9teCvsNPT6j2P33zFfsyIT/mTof0CkjRnDpLm/sdXSse59lt9xGVXDpMtZPcb63+IocGb7F2/EBHbsYgUdK7KXmHR+QRc7q5yMfnCTLv509jiD69Af7OImH87ONevGo5zpr8+MetMXH58FzFPpOacn8O5dC8ZzzjHmjyKKcdc46JbexZosfckY5glIPfLI6GDB25GPWBLOonclw/u6FbXMZ6zeWQ1of8vKxMt0jcqFiVVgWtmr2IrbVQdYI4+ENfrYtCAWqVW9/TC0e0nvYC/JfZ0gO+Iocway9/x0Hj4sYpCsl13a82+zRmY74KX/bkW0uuY0Xp8wMvTcd3mH9e+lJQVNsEWkxmk2wfHzvpvDAsuoox2nH/wj/ZY9P7SfUhjWrquD/1QKdLk8801uvO+nU3WX/kzHsx1zoqf/muH3vLOAoX5s3m9FufOPh34c/bH0+TvkTvXHsiaenxyUTtpevjya6LiD/WnqnQfkO9+a1Me07GpERiYf3hlzaU0lZgkFeypUcibjJBqDuKOHxbilTvc6A18W06cyKCHpxDZ5fmeLIpk7rRS7H2P22se59RzlOBy6yb6hSd8xy8V7VweU7Qunb5WHbjMdd/TOBo/zTbPYe5wOGuCR5nUGg39sJjjaoGZ/9N+f/MqKZrXsQ46Mu1oM428m9H0SszykQxJjrOn3kKNCJC+wAvX3vLJfflkZkP2A4ecRsCu4eCNf3WxufBfTJgdpP/ur+NxumnI8b/HeSgBXPhrKxWQX2AF8N7K98tCr82rAz/jEf8EZR73WW7uhmFMbPqQPmsjMpnnM+mbyrPFBXzedGSURQagZ9NQejrjdim/uqQ+vKv5HcNKitNmf5WEbZJ35I68ylzsV1H1Nm/j46ZNzQh44u12zV4erIIN6lXjLi3qb9vQfODM+Ex1bB0WPQ3uNoE5+EqZflwLFPKG3Qb7eINBXNJlhuXJv4f26tUFOhy+W0A058cYanfHG5OQ5omx69Z1D87AA3IVmc73HelIVezr6UcevRifYuAZ2bu5YaIyLH6ocaQ4/O7sFaY/POe8QY0dnZRztRHRg007Euuxl1zIDahZWNNtblcmxTfsxqjkQdJTvhADfGfrXv7Ox7HJ9UXWcpZwYwDkk9PKuHFcTYGUvny9lXlZ5c0Cn2vjWOGIFUzCbJScrvRkeg9nBj9DtOBXPaP+u8mU3vm6Lj67ZzkiwuDTbtt1tfnckHMG4SOecxAt+Es65xir5fZoAb26WdPUAuo0sPMMf5KkzwdzgBcW+z5DZe9K7Ch4eBMwP1GndKqqnXrqdkzHr6fzaK/I2P8Bezgog0SwqWARjO/+gEHP1nw7O/psP/5ATQ7uKm06znZE2MDn1xS+ZG185G+0L9lcNeUQeZicLIYEZjDQZljACdwBy3Tvuqj0FaJ+rZZEo5B98K9YfdQGKhrZNxLJIcHdrq52yuK/QKNLE+k8es6nDyR8V0vDqxua9TeZ3F5cCXnATSezes+WxklrXhTte49W8NvAJNrpNsUdKYYjxkTFrJQWobMfBJqRXPWn2zgfShyY5vcQZlX0TbQD/p1c/Tb3V9A5adISk659GD2sZSTVUC/xZ8Xu3WvzjwihzILBUS22aoL/TconI7yG68gHnJh6PIXzuKHZetpyRV01CJyFnXbIPl86++ivZUcNRtBOuAH/XnEnOZmy7DSe8Ix2vMpkmpYDXxbt9zeMObeG+u4mREJsh+ku5wfLcPPD3wmANmTepNOn6++iDGzbHdTLFedpPwxALvFN8c202Rc/vHGtjJS14OUPFeUgGhyQoQk+uDajVHTlSg6XEZq1PQhC2l4nxY0ZBjFq6c0k+OQU6viAGzkmnq/cqOSkjLxWtmUqI0L48d9Kf2OgPgmNXVpJNjoO4wmz/gKz+Q1TvGdWX383SpE62pdCqYza2jOV3jd/+tchHvOmNasZsaPFz4YzObbg2WVl+z3+RUUFMHHa+60egP2kB3PEVRURFFv3uYoWZZI0jJ8U+p0BgeDXro2ijiOed202djgC5iNDVORti6Sv5KeR1k9TcHubKbhFdsjzpStJuIps8pUN866yuPanG+HTDH+mwOnTrAcX/D7gWXfFYBHa7CG+23W0SaleYZLHd5jNxr23H8w6LgNFGnvqiyfuh+ZC/40SIGFcTT72Q4lxRaA3CV29NLpVZgMLJr6H+bcwCx4VxyW6KjYVv96pwD5LRfeA9d8XPSWW1FsTVg1kRnZuAmuhZkge+d0CBdR46GD4RiTukRVU/SJw6grX87lS7TwMRyfN12TiY7omyEUlZvOQY5I3lrnrMJlpclwZGRK/myjvAAa9r05JvHLt7A1jrILTRGop42PWxkZyuwCgViEdMTxa2cf9YQHtTlT+CtBjXDTpGSlayvcDkWpjiPWTxKZ79HOZmMNUY7/9XgDhzfssF9iqZoFm9ga10HBt3tnF/ay5LCTNegNxD0jwq71gJSfJ0BHNvEJ8cg97JoAw/upeZVqxlqjtnPdNhEutpNU63B+LLIcf7NDZtI5kAPJ7cVN07mO/AbND12/9fgQIFGvTYzHogYeMzKpLsMwpWQP/PFNj9tB94etv72CwtIDxsoKpUCgyxdx+SwkXgnM2qpOaBS/IZe0tn6H8+PuPkOszQeN9HVZXYEa0A4qHnHCDpTcvxTKcUPX1MqvnNeNXs9PnIZ7ayT/zpjB3uo3RIa0CtpEeuy9ytnfNjI1xnzpjMwzc+2NTEGv3KzeDXb6jwMnJnCbG2gr/FYM6C3xbnNjHk7I0b3zuufGzt73qU/uUCVvzHuBUWkuWo28yybGWK3eZGtuZad8zAX8T/unUH63tA8y65B9P4itr7uGHHWnD/ZyTGqdfj2wh13zO0MbutMdp7l8DmKT257iX0f/Dg4J2hoBFlzLmP3OU7D5zf1UTGumAuW38OFex113YJoc27MqHNdus1N6j53Z9R5m+tT79y2xjzMdWXMfxl+FTbHrTlXs5O5vsh5fiNH5Dbq1JUx/5YjjCsdCYFtxprDN2z+Xnuu4OBcnZWs8e4hr3QkGcH5he06uMyD7BRlnmWTFdxTbz2iPQgw5x82jweRxyyi3CF8JO3IcxUx0nZQffMsm8c21pzNLt817Hum/jqrb55lS+Tfejx/c+bfW3zzrpvvY302cm5ncPntcNl/t98qcPstCs27a87V7GSuL6Kuebzs37OTxjEKzjmfTPYyYs5Xl3mWB1cb88Ba8892dJtDlkk8VfQzsoED6wr5ze+M4ni4/m67zGUcEOP4B6+xiPMbzvWasIWuyXivs8jrOsC8vs/KPMv1nHNL5BzDYXMZTythTmFn+3N2XXtuZeuaIbzMsZ6IdQVMKzH6+EbOP5y31J7SyjlSt/19ao11mvNEg3P+5ySu7Xj3L8Y2casTMTp5uKnXrufnnr/xvxva31jzLIu0KM0mWG5nBp8iIi3enbw8ppDcQ0XkfxhlCilptSY9XcTPsk7w9xcm8vjbZmlLZwfK5oOOYEBuTEl2NoLlMypG8Cn16/AYa0dcQ9XWUdzd0POtYFmkRWmezbBFRFqF5azZcwK6FvJyMnPKS8t1x1P8LAtO/G1ZKwyUgWEZtI0yvZQ1wJxIvIbz+KBraH/sb6xpaKBMYLwJEWkpFCyLiDRhf/n057xxCHIHvcHjyXR7lxZmEk8VFVE0OpsD6wqZuOAds0LrEBjwsuePw/ss2/3xz/r0UdJsTL12Btd2qOCNhja/Djj2T6pox7W9oo03ISLNiYJlEZEmbsmHC/nwWDuu6tp0pqCTs2UFvykspLAwyX7KLcafOTSumBrPAHo55/KePgC2vRR1VOxvfurj60d9fP3oLr41W2t0Wcm/HrXLf+o+soC0MB0eY2TXE3y4Mda4EIlazt1riyjvWkjJmPWUXKugWaQ5awZ9lr81F4mIiIiIiIg0KmWWRURERERERAwKlkVEREREREQMCpZFREREREREDAqWRURERERERAwKlkVEREREREQMzXY07PYLnyen03b2RJkeokGGTaTH9AGcLL6PQyvMQge7XtvAe38j7U+zMJlRb85iYFrgvZ9tC/qxviS8loiIiIiISHOgzHJDbH6VfePuY+e4+6jwmYWNKP917i09wO3TzIJkLOD20gPcO2+yWZCgZay/JZu53mzmFpWbhSIiIiIiIs2KgmVpHW68lQVrn2Bx8DWNkWaduP2Eh8LWNZs7bjTriIiIiIhIc6ZgWVq+X05j8X394W9LmTbmt0wbs5S/+TP5WTIB8423smDt/yT7wP+11/Vb/nigA9fcp4BZRERERKQlaTZ9ltvMmEuvgZ7wwog+wjfRdXUB6aEKHFo0h5rNwQXufZ3NPsqO93W9nycnK7A6c3shrut1mvQA/QoCKwJ8xeyc8WdnjXrlLT3A6BxzaYivKJvXFofeZ8zbyeTBjmNWsYq5U2a6lxlqt8znxdnLQgumlTCnMNdRo5x13nzKHEuCppUwp7BzE+mznMMdK6ZwzZf/l2kP/sWx/Cc8tPZ/ctHfljJzfoVjeWwjn3mCn120g+cn/YF/BJdG2wZwx1MUjc7mxN+eY+KCd8LLRERERESkyWoWmeX2C5+n18CjVNj9g137CE96gH6rC2i77aVgnT3boOv05+k6yagbFz9thz5PDsX2+oqp8Qyg18KbzIr1ajNjLv0KOnFoUWD/i6nJKqBfgusqm2L3CV7wPrV2cDzXG3qFAuXJjHrzAJMHV7MuWL4KX8545rz5OhlA1ex+oeV2cOxcV1ignP869/bf7iifz7a6XEaXlpAXqtU03XgtV3jgwMfhQewVs64jG/BccS1XhJXE8hOuzgb/Pz50BMrAL/8n13iA7CsjMtWT+mQD0O6KYQw1ykREREREpOlq+sHysIlcmgU1xc9y3CwL6kn60CzwFbNv4d7g0tMLX+OQH9KHTqRNWP14eGh71Jn9/TNfbPND1lDShxlVY7qJiwd6OLntNUeG+88cKvYlsa44TRvHwDQ/2xY4M78zea2oHNKuIz/RgcFKbuNFOyNtWcb6jeVALn0SXVc8Jr9AcXFx1NcLiYxF1v1CPByjZn9o0chnnuC+Kyr449+OgedCrHA2DjdewkXAl1WhTPQVs2az+Kfwxz9VAp241GiKveLjAwCc+MdmlFcWEREREWk+mnyw3ObHPWiLj7qYUzj9mAs9cLLGTDfvxb/XD56LkgiWoWZ3eDPp00eOAh7Ojzu6Aib1Jh0/X30QCuIBOPAlJxNdV5zy+ucC1VSZTaAXb8cHdOySSLQZxb5qas1lqbLsVxQUFER9/cqR9E6MNTDXjTVLmTbpD1hhbLJyuGPFE9yX/j7Txixmg1kc8LvfUFhYqCbYIiIiIiLNTJMPlhNx8ogRkAZ14oJUZHAPfMlJc1k92lzSCfDQdfrz9FvteDnnZ24MddV8bi6zdewco+NzFHlLDzCn1PGaeR0dzUpNWXdrYC7+9NuE+ii7+wkPrZ3CFf9YGtlHWUREREREWoQWFSxHd5SvHYN8JS37Itri51QCKUkrG+139FcOfx2KlTFvJLXViQWL1sBifrYtcPSRtvtNN4pUNsPe/xV+OnDNT3P4x/O/5cn/DBVlp3cA/1fxZ5j/eoQvgeyfRgbdV2R0Ao7y+V/DPiEiIiIiIs1Ukw+WrWDTyAzb/ZiDNn/AV35I720OmNUTT08P+HbH6O8caOpdv/a9sxIPvBujuXXJQWpjNKcu21EOaX3IyzcKpg0gCz/lbzvbMVdQUxcr27yAPjlAxfozN7J1Kpth//VD/uEHDrzP78IC2SiDddl9mhevfYIFs8xj8hc+OgD4d/BHR9ANOVx3RQc48Glkc+wbHubVoiKKfvewBvgSEREREWlGmnywzIrd1OCh6+hAIHwTXacPAL/fUWkvNe/4IKsgbOTrNjNup6vHz6F1ob7Hp2v84OmBxw6+XaekcjPpAXLqHWjMxeZX+dwH6QVzUziYlx3gDh7nPhr14tVsq/Mw8G5r5GvLAm4vzHUJepdRVQPkjGKUGVxDcFvkDAhta1pJM2qGXcHv3q6E7P/JQ78MLMvhjhX/k2z/Dn4X0STbCqKJMlL2hj/uwO/pzx2OQHrkM1O4xlPJH12aZA8dfAXtADw/4uY7zFIREREREWmqmsc8y/a8x1b215o72f/jufTquS98XmNzLmN8VIyLDG7bLzTnTq7i4tUFEJhnmZ6kL7+HrmExdOSczbEC7ZPbXgobmdu1box5m+u3gNtLxxP2bcPmWZ7MqDdnMTAtVB4xd3JQfXWNbdW9z7KXYezM66gNbDP/de6NFkDXvc+yW26jylx+Jv1yGot/mhl67zfnSg4Z+cwT/Cwb/NHmYL7xVhbc15/Q2azkj1EH+ZrEU0U/Ixs017KIiIiISDPSPIJlkWZs0tNF/CzrBH9/YSKPv22WioiIiIhIU9T0m2GLNGc3PIw3C/CVKlAWEREREWlGFCyLNIpJPFVURNGvfkT1ukIKf30Whj0XEREREZGkqRm2iIiIiIiIiEGZZRERERERERGDgmURERERERERg4JlEREREREREYOCZRERERERERGDgmURERERERERg4JlEREREREREYOCZRERERERERGDguWUmcy39/v4+lEfX9+/ku/NYhEREREREWk2mk2wfP31L7Ny6mPcZhY0Ed/d/jD/4n3OfzSLC56bwDlmBREREREREWk2mk2w3LQ9wXc5cN47CpJFRERERERaAgXLqdClm5pdi4iIiIiItCDnZGZmft+3bzZHjhzh1KlTZvlZNo4Z40eSZS4OqqR4ySO8DtDrMVYOu5gdb97NoWtXUHBZZJ3rr3+Ze/q0xbd5ErP2ONczmBkT7qI/O3lp5TO85yyKR5eV/GvKdZzzpyzO224WioiIiIiISHPTxDPLq5m1ZBITlkzipY9P2oGv9d562YFyUFv637KCAtbb5a+w41gmBRMe5Hrgvffexgdkdf+3sE9x8WB6doCTlVsSD5RFRERERESkxWniwXLiTn78ChOK/9t+t4X3Kk9Ch452dvq/2f0ZcNlVYQOFXd+zB22pZNN7WxxLRUREREREpLVqccFy9dHwgPe99+4Oy0C/vr8SyKR3r0CNwVyf2RY++8TIUsfv+359+JZyfqAm2CIiIiIiIi1CiwuW67VnPTuOOZpiXzyYnh1OsuPDQDY6ft+P2sXXj/r4hhe54NERrfBgioiIiIiItEytML6zm2bbTbGv79mDtsf28d4XZr36nbO+Lxc8msV53MvXj27kO7OCiIiIiIiINEvNJlh+7+gXwMV0vdgsSZw10FcmvXtZTbAbOrDXOTs/5lxy+W6AWSIiIiIiIiLNUbMJlqmp5SRt6X+tMZJ1UqyBvrKG3UX/DhrYS0RERERERMI1n2D5i2e4c3MlXDaKlVNX2K/Hwka1ToQ10BcNGthLREREREREWqZzMjMzv+/bN5sjR45w6tQps/ysq6391lyUGr0eY+WwTHybJzFrj1mYoC4r+deU6zjnT1mcpxGxRUREREREmr3mk1lOsdu6Z8KxnRQ3NFAGOHyQc8xlIiIiIiIi0my1ymD5+utfpuCyk+woeaZBA3uFlHNOLXwzdCXfm0UiIiIiIiLS7LSqZti3Fayg4DKAk+x4824WJjFdVHST+fb+h/lXR6D2fc5/boKyzSIiIiIiIs1UqwqWRUREREREROLRKpthi4iIiIiIiMSiYFlERERERETE0KSbYV9++eX4jnzZ5PYr4FRt09wvERERERERaRhllkVEREREREQMCpZFREREREREDAqWRURERERERAwKllPl4gdZPnUFK4Ovl5lxsVnpLJpah29DHU+Yy8+WYRPpsfp5+q1+gPZmWWuR/zr3lh7g9mlmgcjZ8cTiSnyLUz8Ww+RHv8C3oRLfhi9Y6TVLRURERJomBcupcPGDLL+lH20/W8+EJZPs190s/MKseJZ4T7BrTC3+D9rzW7MsXnZw23WSWSAijWMBt5ce4N55k82CRvPbonT83avY9WgK57efWsfDP4b3n8wka+TFTCg1K4iIiIg0TQqWU+D6nj1oy0l2fPjfZlETcIqND9Xg2Z9B30fPNQsdGd7Aay7pw8xKjWDzq+wbdx87xz3LcbNMRM6O0nb0XdsRz48/Y+NUszA5T/Srhf0eBckiIiLS7ChYTpkvONRUMskOkx/1k0tHVk073yyCSQ/Qb/oA2PYSO8fdZ79eg4mtuGm0SGu3JI1V+yF3TCq6bXxLt4vMZSIiIiLNg+ZZboDAPMvXX/8y9/T5guIlj/C6Wclm1WkbWvDZeiYUOzPR/8b8qaPo/PEr3Hl0FCuHZQZLfJsnMWuPo2rcTrFxQxWdP7jMJavck/Tl99CV7ey581VOG6UB7Rc+T06WuTSkpvg+Dq0AuImuqwtou+0l9h0poF9B6EOhOnYme/oAgkfC77Z9a10U38cXl8yl10CPvdxHRUQm2v4egSoOJ7e9xL6Fe83FUSzg9tLxUJRNSZedTB4cWGE567z5lLnUDX1DP9sW9GN9if12WglzCmHdgmqGzLyOjpSzzruajDdnMTANqFjF3CkzrT7LM6+jtiibj/sfYHSO/fm691l2y21UBVY/rYQ5hZ3ZtqAfVWMd9dz2bVoJcwpzQ+8D20qWs4tB2PWahHj2zT4mHYMLnN9xMqPenEXuJ/N5t/MsRudA7Zb5vHh4nL3e0HnImLeTyVd9zLJbDpLvOFe1W+bz4uxlwbWDXTd4vl32K/917p3Zh3Lz+JvnCVyuDfMc1X+dReyPIfI71LdNS95S57Xjth4H7wl2PVQDrr8difiWlas+47ovM8hye2AnIiIi0oQps5ys7rODg3lZQXAmBc4Bvgr+za44mBkTVtjBdKA/83p8l41i5YQHud5Ybds+d7FyGMG6L318kqxhSQ4WNvVrcmnLx+/EuNn1XEQbc5nD8Rl2xnnRdk7agW8oC+0Igm1tB95DvwKosMv3bPOTXuBo2h1sfn0fFb7wz5rSC56nV/o79rZe4pA/i5zlEx376wj4HdvD3s/4A+WQrMIDTO68nrnebOZ657OtLpfRb75ORqDCtBLmlI6n45b5dp1slm2BgTPNgbo6M+TuzrzrXYWPXIa8OZ3cT+azbIsfcgaQF6znp+OIA4xmlb2+VfjSrmPy0gXOlQEeBs501ovct4x5O+2g2tqvud5V+HLGMydiXfGzuhgAl13FbWZhAvKWHmBOYS6+osC+ZTN3x4CwY5Yxbydz7IcHgTrrKnIZXbqTUfmOlV01nSHV1rHseNV07i2Edd5V+PCQe4Ojf2/adUy2A9O53mzmFpXTcfAsxzYnM+rNA0weXM26wD4FjpnznEPw+A+pDpx3l/OU/zr3GteGtf8ljvNtiXWdVc3uF9qGHdQGj5k3OzzAjXObVqBc7vie2bzbeXr4cXUqvYCP68DT62vOXI9pERERkaZFwXKy9s8LDub10scngUpHMDwplIXrNYr+HU6y401n1vm/mbW5Ejr0o6BXaJUAHNvJS44M9Xt793GStnRMN+rF4Yl+tVDXlk2ufQX3UvOOD8giZ/Xz9Ft4k1khOf7t7HFkf09/sI+TeDg/26gXD/929sz4s/1mL/69/vDgftiPudADNe+EMtOnF75DDZDeO8nvU/c+y4JZxWWUfeKHtM5cClZwNSIXKlaFBSxVsxexrQ6yRjgDLA98sjqY3evIx6wJfqYzGcEgxUPHGmcmcyYlW/yQMyoikKndMt9Rz9y3BeQP9lC7ZVEow81MXisqd11XvKzrD/jsk6itJuqV/zpDcsBXlM1rix3LF+c73gf2f35YnbIpVhA8cGwoKO2YVs27gWOZ5qG2KJRF7djZkTrF2Obi1dZ56m+va9o4Bqb52bbAmYW1j1nadeSbo5SHnfeZfFwBpHcLnvO8sdfRse59x3kO7H8uQ8xBumJeZ/GLb5uTyUgHKraHZZvLpjhaQ0Q4l0172kLaNzjaAoiIiIi0KgqWG9lt3TPd+zPv+QQf0LnT4PDldYd5z/n+i2e4c0kyzbDtvoJfnkeUhpaw4lk7YwtkFdgDfDWwv/LRqvAm1XYm2cxAx+Pk3g+iNg8HIPuiUHNuw8maetLWUdR+8lejWa1D/o3kpkFtdYVR4Bbs+Cl/23Hkaw5GXa9vR3hT5KrD1YCH9B5hi6k9HH4mrQykHehNG0CWuU2AfdXUuqwrbvb115Am2Bk39KEj5XzsDJRN0waQ5fId3YLS8KDPT82+4BuDuc1lVNWE1pXXPxeopsoMGBdvxwd07BIe4JrnKdwC+uS4XT8V1NRFBvGR9ZIR7zbt751gK4Nln7cBTtOtIVM9eb+mTxqU71QTbBEREWl+FCyfCcdqiRa6te0Y6pt8duyl5k67WXVxKNPcLKaIWlHMIT+kDw01zW4zYyjp+Pnqg8SbYMcrMqALcGaMG2BfNbXmsnpkdOkcbCo8p9TxCuv/e3Zc2tkDddV8bhZEiBH4JpF1jUuM/TID3Jjyu9ER6Dh4VvjxL7X7qTeGBLZZNiXb7gIwPlivUaek8p5g14ZKfFPgxZGZjFhiVhARERFp+hQsn2UnayvNRWfPimfZOa7YasbsCECbrizO9wCeAfSyp77qNRAOLZpDzWaz7pngkqVMRo/OdIwVOLqwstF+R3/l8FdY8+cz7PNqM+uehBhBbWOJbEEQQ8lBal36Fwdf5kBmqZDgNkN9oeezrc4KshstYC5tR9+RmWQthXs3VKZsGioRERGRM0nBciN7fX8ldOjB9eYAXb2uIouT7N27xShIlXM5+CVw0TepGaBncxUngbaX9DRLzhori+wLDiZmvRoxUC75K+XOPq9Bk8m7yhPRJzRZUZsHx9LQ5tbRXPwgy8MGrEucFcjn0sfsA+y0eHvkAF0Qo6lxMsLXVbajHNL6kGe2BojWpD0ms+lzKtS3zvrKo1nG+lvsgDnGZydfehpow0HXMQ/iZA8Ultuvac5oICIiIhKLguXGtmc9O461pX++c+Trf2P+sEz47G0Wmn2ZU+i3OztC2kmGu/Y5vImuYSNLW6wANHzQLIuPU35oO7CgYX2aU+j0kaNAJy4IjLTd6JaxfmM55Iw3RnGebg0UtSYF2cNpJYzOAZ9j0Kq4lNzGuxWQVWiMHN1AKRkNOzCwlrlv00ocx9Ea2Kzj4PARmvOWjieL8tCAXg0Qsa7Fq9lW52Hg3c6B2RZwe2EuVKyPMfiVm9C1kbpsbaCvcbQB2uLd5gJuN0f3jtr/PuBbhvc6CXXnUW4WiYiIiLQSCpYb3RYWrnyFHfTjnuDUUtZ8yg0ZNCkuSy6gnJP0GfqtWQL8mUOvQqbdfDnw6jXwKBWuA3LtpebOYmoCo2fbr0T7NreZMTf42Zys8CbUPWYkmLVe8SwVPg9dp4d/h36pHN3btDifuUXlZBWG+ohaUw/FGlk4ikCm2rGuwNRPyTSbtvqlWtNYhfVhNQOlBKRkNGyWsf6WbNZVGH2q+28P+55Vs/tF7P/o9PdZ5jJncHxyGe04DpHrsjOsXMfkYD17GqZkmk0vzmfugvchog9x8g8wyqbMtwJ6xzEJC4zj2uZMXnsZxjrL7Sm6os+zbA/M9Zd20QcIFBEREWnhzsnMzPy+b99sjhw5wqlTTaup3OWXX47vyJdNbr8CTtU2zf1ymvzoFzz8Y3j/yYuZ0JDmlE1Q+4XPk5Plj+yjPOkB+hVkcXLbS0nNtSzNX8a8nfZDjGQD7dbticWVjL8oncfHNzRY/paVqz7jui8zyJqmEbFFRESkeVFmuYVb9qiHck5y3ZQTqem73GT05IJOgH8ffrOP8oEvrWyoiCRuah3ju6cqq2yPnSAiIiLSDClYbvHOZ8ST6fjTanh4cdPPhMdvL18fBTw98IT1We5J+sQBtG3k6aNEWiTvCXaNqcX/wWUpm+6pvLotdPez0nXsBBEREZGmS8Fya1Dajr5rO0L3r3nCLGvGjs+4z6XP8j10ZTt7GnNUbJEW6onCGjz7M+j76LlmUdKWPXoxj38A1z1UiW/DFwqaRUREpNlQn+UGaA59lkVERERERCRxyiyLiIiIiIiIGBQsi4iIiIiIiBjUDDtJl19+OX6fv0nuW+2pWnORiIiIiIiIJECZZRERERERERGDgmURERERERERg4JlEREREREREYOCZRERaYGG8/iI9ay9cnicy0VERETCKVhu9W6i6+rn6TGjp1mQlPYLn6ff8om0MQuaiTYz5tJv9QO0NwsaUd7SA8x583UyzAJpUu5a+iSlb07AaxY0Gi9LSp/krXm5ZkFSzvz+p5Z33iOUlk7nLrMgiqnXzuDaDhVs+HSTUbKJhz+poH2vGbzcxSgSERERcVCw3IK1X/g8/VY7XgtvMquIyFlw19InKS11vJY21xC2afrJlW/w864n+HDjdJaYhQCHp/O/95wgd9AbPN7BLBQRERGxKFhukXqSvvx5crJ8VIy7j52B1+7eKcsgi0gycpn/5pOMzalkjfchvIHXjl4pyyDLnYzt1Y7je17i4WNmWchfPn2JD4+149pBj/ETs1BERERE8ywnr0nPs/xvd9CvIIua4vs4tMIstbSZMZdeAz3m4qCT215i38K9oQWTHqBfQZajho+Kcc9yHGDYRHpMH0BbR2kY/3b23Pkqp4MLepK+/B66Bjfv59CiOdRstt61X/g8ORSzp2aotY++Ynauywhuw/xe5ncx9z2wPuc6CFvPTXRdXUB68BMmx3dNRP7r3DvzOjoGF5SzzptPmWuZoe59lt1yG1Xm8jMsY95OJg8OHdvaLfN5cfYy+90Cbi8dD0XZlHRx1nN8zyR45z3CrMGhdN/xLUu4eXZ5oJQlpSPJ2LKEmw+PpLQwM1ivvOghpi4OvrUD06kMSgu8P8bWBY8xq8RZx8ryjs1xLKjYgHdKqfX/+RN4a2Ze9Gb5dWXMv2Uldu3g/oXC3krWeBfxSuDttOmUFma67GuI+f1N4ccjtM4QxzYT3v/Yx+yupU8ylg3Mr77e2seKDXjXXBLchvm9zO9i7ntgfc51ELYe83iajONrZ5X/o1cVb6yNklV26rKIkkE5lG8dxd2HzUKAoTz8u/v5kecAfyz8DVF+TkVERKSFUrCcpOYQLJtBozsrUGwbq+6wifQYXcW+GX+2FwSC3cggsv3C58npZAbHTnZg6itmp70+K9glGDBb6/Bz8ug77Nvdm34FnTjph69efQ0m3kPXo6HPtl8YyKCHB+44vo9Vh7Cg19xmgLX8aMT3SpgdDOMMLvNf596xB3lxysywqnlLDzA6vWkExyGTGfXmLAam+dm2oB/r7WApY14JeW/n2++tYDkLoGIVc6fMDH2OZL5PIFALD9C886bjfXuR/d4ZPIUCJSsow/E5u54j8I2sYy0bd/ixUIAXCC6dAbPtrqVPMjbdDC4d7M/iCAitQNwR0NmBrRk0unM8GIhWN38Cb409ws3BfQ0cw8ggst79j+OYWes4xvGa97h5Ry9KCztxvA52v7wS7p7KoJrQZyO+e9TjQz3n0t67eY8wa/DRiO8VbjiPj5jBtf4i8j9cbha6uJOXxxSSeyhK/Rse5tVf/Yh2wIF1hfzmd2YFERERacnUDLslWlHMIT+0HXgP/VbPJX2YWSFBm191BMoAe6l5xwdkkTbJsTgObWYMJR0fFY71nV74Gof8HrqOdvSp9sBX6wJ1PLD3tVBQ2ynDGkBs2EQuzYKaYkdgu/lVKrf5aTuwwMim+Tm0KFTv9Af7OImH87PDKqVOj850xE/524EsLFByW0SgnDKTX6C4uDjq64XJ5gfqMW1cRKAMUDU7ECg71L3PsuD3WkbZJ35I68ylRrV6TRsZESgDlM4OBMoOdWXMdwRNpW+Xc5wOXNTDeu+ddz25VLLGEfCWzl7J1roODBob6h9cOtsRKAOUrGR9BZDTK+6BpALuGptH+7oyXnAEtq9M2UA5mYwKNLFevIGtddB+8FRKSx9hfn7o80kpWekIlAHKmbWxEsgkb5pjcRziPWakwe41gTod4JOVofOTfok1gFj+BEblQHmRI7AtWckLW47RfvBI49geY+uC6OcyIR2Gc1UHKP/MJfB1tZwdhwDP5e5Nsd/ezD/8AAf4SIGyiIhIq6NguUXaS82d97Gz2Ad46DrdGuArpf2VD3zJSXNZvXri6ekB324ja7uXr486gmAA/z78jozvySORWe82P+5BW3zUGW0jTx85CnTiAudDAmN9jW5fNbV4GDhzJ6MaGhDFY9mvKCgoiPr6lSNmj0de/1yo+5gyM0h1UfvJXxPMILu7q38m1JVTGsc2qTkSnh0tWcnN3kDT3Vy8V3WAij1GBrKcf9Y4Aroo9lXH6OgalZe8HDj+yYdG1raSL+ugfedAM+lyZt3yEN6iSqADg2ZaA3yltL/yvqNJtIpI4JgZ56jqcGTW23tDLu2ppMxoal562PrbvNz5NxHvOY9Hh0605wRHEziF+/wnoEMn3GPzd3j8jkIK1QRbRESkVVKw3JKteNYe3OulUKY5yWmdIkbWjtVHOaoszvcAWQXh61odaCadmDbpHiCLHGNd4X2rz5KS23jRuwofHgbOPMCc0gPMKS0hz6zXJE0mIx2oOZiSIDg+uVye7hIEJyWTi9KAnJHhI06XGn2TwW56HF4nVn/hqPIvIYNAxti5Pmf/X4fFi+zBvZaEMs1JTusUMbJ2rD7KUSVyzOrXo3MHIJOxxrrC+1aLiIiING0KllsFK9O8Z5sfPAO4OMGm01afXz+HFjlG1l60PYnMso9TfqwBu5yjdAdeUfs5uztd47f7Ibusa1x4X+SzYyavebOZ681mblE5kMvoxgqYU9oMexlVNUB6tzM497NLBjNpVjaXig2h0aadr2CfXbuPbl0Z8x3l87ckkJYMKDlClT2AVcT2vA9F9H8OsTLN87ccg7Q8xiXYdNrq83uMrQsc21pQlkRmOd5jFh8rO2+M+B18RQ6yJiIiItIUKVhu9awAtm16tGzsTaRlAb534go+T9f4wXNRlOy1S3PrBnBtbt1AjbFOABbn2wFzZzKMZtmfVyfZx9cpxc2wrX3qQ14qm5Df8DCvFhVRVPQUbs9r9lUfg7RcvA3eZpyB97Re5ALlG+MLBK39i9Zc12xunQr1rdNq+k3Fe3EFn7H3P85jFifX5tYNFNc6jx3lOO3olEDjgB6ednDsKPvMAtukp4soKiriqTvMEhEREWnpFCy3QG1mzKVrRDRyExcP9IB/O1+Edb6zA9isoVEGArOzwVm9Q007Jz0QtRm2FWxmcWmU/tHH123npGcAvRY6BvNK1opia2Cw6Q8k0ew0igNfchJjsLEkZMzbye1GljCvfy5QTZUR2FQdrgZyGTIvofRvo6qavd5uQh6eCc+YV5J0H+yhg6+gHQDZXO0SeJTOfo9yOjBo5vSwAaC886YnPBDWK2vKOJ6Wx6ylMUI/u29vbv9QnbuWRm+GbQVrjsG6wtgDa+WMjNn/2DvvEZZEZI+9jBvcAerKWB3Wx9cOYHOuj/L97WywczCyadOjNsOOvf9xHrN4Ld5gDQxmnMsG2XeU4xiDjZmObeKTY5B72Z1mSRR30r8r4P8nfzGLAJjE1fZzxOxhDzPULBYREZEWTVNHJalJTx11qtYxXVJI9KmkzHmPzbrGPMT+7ex5FTKnD+Cky1zO5rzHkfMsu89rHJj3OGz6KXt+Z6vM3k/C1+f2XXFMTeU6nZU9xZTb/secUzoBeUsPMNrZ3zPG3MnmfMax6p45gemjQkvc5lnuGLYs8F2qI+daDk7DE2vOWnOeX3Nu3sjpjaJzn6M3bC5gY47i41uW8AITok5RZM4bHDFPseu8xi5zFRv9gKNPJRXn8QgU1pUx/2X41cw8qlzmcq53/8312QLHLGz6qbA5o+39JHx9bt/VOY+163RW9jF023/zfKVmnuUMPtz4cx6O0vp+6MxXuf+adhDzuhUREZGWSMFykpp6sCwi0jrVM3dyUJxzMgce8vj+SOGvFSqLiIi0JmqGLSIiLchy1uw5AV0LebmLWRbykyvv4doOJ/hwT4xAGZj0sx/RjhP8/Y8KlEVERFobBcsiItKi/OXTn/PGIcgd9AaPu3VB77KI/+jVjvKtsZtfFxUV8bNOf+e5wok8/rZZQ0RERFo6BcsiItLiLPlwIR8ea8dVXYcbJcN5/Kocju9ZyN2HjSKHdxZMpLCwkMI7Hucds1BERERaBfVZTpL6LIuIiIiIiLRcyiyLiIiIiIiIGBQsi4iIiIiIiBgULIuIiIiIiIgYFCyLiIiIiIiIGBQsi4iIiIiIiBgULEuK9SR9+fP0W/08XSeZZZKU/Ne5t/QAcwKvN18nw6zTInTj6QdvZe2DQ/gFMGx4AWsfvJW1hd3MitJseJh9562sffBWnr7aLBMRSVBGb/6rVf2ehP+7GOHqIY5/J1v3723GvJ3MKS0hzyxocRK7V/pFYaxrInDNFDA7w3E93dmbYWbVVkzBcqt3E11XP0+PGT3NAmkqSm7jRW82c73ZrKswC8O1pH8sNtfUAXDiqPVfEZFI1o3jfw33mAUirYyfz76y/vvVF2aZtFQpvVf64itOAHzlZ7NZ1oppnuUkNYd5ltsvfJ6cLEeBr5idM/7sWIAdLBfQdttL7Fu41yiTpiZv6QFGp7/Psltuo8ostIPlyYOrWefNp8wsbPI8zL6zgAHs4tnlu9l89RDW5nfjRFkx/2uTP7Ke4944oo79WTf7S/7Arz+y/n/Y8AIeyIPtK4uZ53ZAwb4ZH0J3czFA5buMKToYtugXhbdyc6Zjgd/+Pi77HcFlfRKnjN7814S+tDOXG+c84vwAcJC3nnmX3xtLzbrh11ngujA+G9wP93VKqlnn4RLzN+Bssc8/UfbH+s2p461n3oXCW7n5wsDvg4P9+xW4bq3PuP1w+B2/XVF+p8zflDh/G5ss+/geaQ77mhLGv4tmsXG9Wb9Zzuui9Wje9z+JiPdeyVLffY51zdj/XgX+/TJ/N1o5ZZZbJKspdE6Wj4px97Ez8NrdWxlkaT7sJ5xHapw//t14+kH7H4ln/sAY+7WUoa5NjPaXhOoEXknfYFW+G7Gu8H9MrAyX9Y+Oo846uHm4B/Azb7ljeclB+2Y32vokGXGdc7/z+nmX/XTj5rBmjva5vNBRb+UuyCtwaerWjasd196wXlmuAbu0ElV+jpjLTP6v2G8uq5fxW/HMHxjzTOTN74my4vDfmMwhLtdsnH8n0uzsP+oH6vjMJSiSFsr1XilJ9u9XSrLULYgyy0lq0pnlf7uDfgVZ1BTfx6EVZqmlzYy59Bro9qTactKRabbqHqViXDEXLL+HroGP+bez585XOQ12gO4ow8+hRXOoMR6Dtpkxl14997HnziouXl1Aur3cub2AiMx4gGuGvH7WU8fQd67dMp8XZy+LWYeKVcydMjO8/KqPWXbLQfJLxxPYPbd1kf869868jo7BBeXhTzzt8tqibF5bHKwUM3vsXraA2x37EsnYLpMZ9eYsBqaFarjufxNU3xPSICMzE01867MzNvU8aQ17OmsWurl6CGvz0+rZdmy/KLyVm3mXMe95wrKq4d/bkXmr6RuWVYo8Pmb2O1qGor569ZU7RGSEEziGTnFmnH7hks0LZO7CM3lW9i9sP5zX1Re9+a8JWXxaVseATpX2teFh9p1DoaKOAXlEfj4eZubP7bqLecysY39lRTEbOxVwc6adEQ+e+9C5GDa8gAdyfDy73M/NjqykW4YiIrtp7leGfTxWFvPZ9Y6MfLBlhZOZBTXPuVVOyR94K9253VC9iP0xRH6H+rZpid2aIB6xM92hY76b7i7XIkT+fiXyOxW+3cDfoeO7xvnbGJcGnfPw34TAb9mzR/ta57Uy/HctuL+Ov/OPekbfZuhveBeXOX+L3PYtnr+5VuXfeaH4FjK2Psm4x/5qFsYldfdK1v1K7ifzebfzLEbn2Os4PI45hbmAn20L+rG+xJlZ3k6fqNu0739qVjF3Tbew7brtm3lP6FYnIZNfoPj/y+BvT4/j0b+YhU3fpKeL+FnWCf7+wkQef9ssbbmUWW7B2l4SPYt8euEcO+NcTI0drAYz0OPuiwhcIYuc1fdw4d5AvWJqPAPotfAmu3wvNXfany/2GZ81eAbQa/VQTi0K1W878J6wAcGsQNmRGbfXeXLbS0kEypMZ9eYBJg+GbQusvr9zvdmsYRyj8s061ayzy+d6V+HLGR85oFbadUwuHUVNYF1F5XQcPIvbpznq2D/+bJkf3N7cBdUMWbrAUSlVZvKavY1lW/z2PzSh7znXaJKUt3Q6vOwot/f/3nmTHbWaMg8XXmwuO9u6cXUmUFkZcfPd6DKHsHZCFp/aWadny/x0z7cH63Bol1fA2nyCWe/IenbW/qtQBv3ZMhgwwVhXRm/+KyK7/w5c7xwQxJFFL4l+0zlseAFr7RvfwDbfquzGzYHBRs6oQD+/btyc53E/lx9Vsh/o3tNxY72nkv2Zfe3BUfoy4KtdzNvzFSdI47IEv8MvCm8NBjLBjN/ezLBWE3Efs5yhjDhazLNlftrlDOW/8q3gfT8eruzlCDI9fXnADkwD56tdXoFjm9YAMFbgEdjmu+zPHOIyCIyHARNuZcTRQHbzXfZ7+vKAM7OZ0Zv/soO68P2PHMCoe/6tPNBpl12vmO3+btxsb3PzJsc2zIzqM38ID1Tj3GbogVdoPRs7DU3wWqzjKz+06+R4Gnm2JZXJjlcc5/zqIaw1jr/122IMOnRhX6Z02mVnxPvyX6OtQHy73/ibw88lg+wHhdG2Cdbf8oPWg6No9YYNL7AfWhrXdsS6JGFx3CtlzNvJHDtpELgnWVeRy+jSnY77M+Cq6Qypns+yLX46XjWdewthnXcVPjzk3uC4d6nrzJDS8RBYn8s2AcgZz5yZfSiPsW95S417wgXvQ7O6V0q1SVydBdCOKwYPNQtbNAXLLdGKYg75oe3Ae+i3ei7pKRrSrqbYGUT/mTof0CmDNka9eNQUO7LOK3ZTExbc30RaFpzcVszxwAcC36nnjxPf3rRxDEwLPX0MqJqdH3ofrOMMLGfyWlE5pF1HvvFD6ytyrGvxdnxAxy6OH9AenemIn/K3HU8gS27jRUeW+mwpmxJ+HFi8mm110PGqGxMbZXvyCxQXF0d9vdAI/55s3rTLClbyY4wOejZcnUl3YP/e6IFh4wnP0FjHyAiIsDMqjkza5j0+TjgePAwb3tfqf+vIqGze9A7b/R4GXB+6cfzF9X1pF5Gd8TOvyMwk1ccKSk+UFYdluH5fZAV0zm02qozeTMnzgN/H5iogw8MlUc+lFQiFO8hHldbx/kXPblE+F4eM3ozIdMn2f/RuWCuBeI9ZO08dGwMBo8fDkZLQuTcDubBtfrQrPDi5ui8DPH62r3RmYQ/y65KD4OnLzWb3h8p3HYHqQT6qBC70BIPqwPWz1BHMWvvfjRHmIF3+XTwbvB79bK7wg+fCyH659Yhvmx4uuzDygdfvi2Jlc+NgP1wKBNzdO3nO2OA5w4YPZYAHTlQcbNztxTznHmYP6mbUCfy2QPdBjgcuHvj0vcD59kDFO6Fj77iGwEO7r5zZ34O8VeaHwEMrh/0lzgcn5r4F/p4c2wlc2y7ris3qurE22quVBt+x75UWkD/YQ+2W+WGt68qmWEHwwLGh5ELHtGreDWR00zzUFoXu1Tp2zgnWs8ocrfXs+5usEeYsIuWs88bYt/zXGZIDPsd2KLmNNVv8dBw8rkUMopq4FXzkAzjBP7a8Yxa2aAqWWyQ7y1vsAzx0nW5N5dSw/sp+Th0IX3J8xn3sDDbDToSPuijNwwEYlkFbc1nA0aqEt5fXPxfqPqbMGSAa8vrnAtVUmXXMH1AAyvnY8cPual81tXgYONN4OtokLaOqxlwWh2W/oqCgIOrrVw1oqRTdQX5tZ0WtrEGsKRECQbXz1YCMZaY9pYLj1SRG4A0EeUFRMlvmDXrVbv5XsJ+ih2E5btlUe3RVx83l1Zkpuvm2HzBE9rMyb2gTE3nOXR6qePryQKDcHhxnjNk0M5YLPQy7+ELa2X0Df//eLiuTm3mQj5Js2mr1da7n84kcs7BzGWt0XHOb4ef8Fz27ufeBtLPsl6SH/w3EflgQ7fpxv2Yj6yUj3m3a37vBWcXAiMQW67y6PLwKcF6LgZfrAFxWBre+a7tdnj2NzIO32k23jSy7LfLvJPnfxpjnPKMbV3rc+kC6PPwwfssir/MQc5vWiMBmq6PI6/73RX8I/a1fnUl3/Hy6x9jOF1+FPUiMj/Vvk7N1Q9irVTbrrudeadoAsoDaw+bNwkw+rgDSu4UC3IrtjkSGn5p9wTcGc5v2/U1aZy51Lq6r5nPne7uFXqCJdcYNfegYsS6oOlwNdCajyd/XNY4Vvy6ksLB1NcFGwXILt+JZu8n0S6FM8/KJiWdmz7TNr/K5D9oOLKB9YNmkArp6oGZ34k2wM9KBmoMR/X8jRPx4hoQ9uYxHyW28aDcRGjgzMEdyE5nSyZy3ufQAoxP8emeb2QSze777k/vIQWwakCVyGeDL7Sa0eUrjQo/7A4GwkaPtrGusm9jERN7MBiWRQcT1nEf2Sw0N8GVdP+3y+kYEHTFFPHg4yKd4oGyXY1uJ3Wx37+SJs7ls6o9ZvWLslxngxmRfP86ALhCoxRwlviES2Obvi+wHcY6/g6QfiF3oYRgehuXA9rKDtMvpFnyQERY4hg02Z79cuy64DfAVeW0Hm6OXHLQC7CgtNCL/Thrw2xiH6L8ZiXdXcBWY8iYBw9LT3B9CRBlVvyW78ZHVjpZht5ADtBv0kGPZC/y7+aGUiBH4mgFukj6vjnbtRXdpZw+Qy2jjXsnqJ52IG3l0paPV3f+XA7Tjml87lr3YOEdWUkfBcqtgZZr3bPODZwAXO/oGN009uaATdj9pKyte34Bl0dlPFZ1PKJNQW13PBMeuQn2J5xaV2z+8ZzlgDgykUbHK0ae5/vmbXZ2FZtiRrKf5b1WSRLO5FLJv1ML71TUndvNilwcCY55xZGLskTLNbGKjiBGgpY7d5NLZHDfmd7QeKrhlyeYtb9jDk/1Hk2tiHOaMHLNwkccihsBIq0b/4uCrMbJvCW4z9CDO6ivbLq8g4YDZGpHYzqriY/OmSvZ7shiWYTf1PhM+evfs/y7GxaXVQjIuvpB2sR4kubCy0W4PIaxXYgOgNe9m2H99bJyjZdibVAAntj7pWPYr/o/5ocYWI4GRiEs7exJelxVgm+O/BF5GV7aY/sqjExyt7v5/FcAJ/va0Y9m9Z/zISoIULLd6Pk75oW169LGUz7hJBXT1+DkUGADMfiUeKFs+r/ZDWh/yYjSbKdtR7l5n2gCyzL7HyVicbwfM9TXfWUCfBmR562siZDUt8rNtTQr6Tp+VZthNVNVBPvUDmZmJZSgbg93s0WymGJvZ3Doau+mqI0uWtI8q3ftWR20220jsPrqh7LLVpNk12+xotmllpVLHunEPn4Yqwhk5ZuHr+v3eg+DJYpgZcEVrwhqT2fQ5FepbZ33l0fiZt9wOmBP+rJXlH9YrCyoOsjnYrz2J9TTA79/bxYkY2eUzwv5tjHyQGK3rR3KidheIJanm1tGoGXbCFm+PHKALgvdBtZ/8tf4WgfWy76niaV3oUN+9VGs1dOarFBUV8epMDfAlzVybGXPDRpa23MTFAz3g384XYUHnXr4+CmQNTdlAYA124EtO4uH8bLMgOVWz19vNocOzuhnzSkL9iRevZludh4F3OweBWMDthblQsT6Bp4iWjHk7I0ZfjOgXXXKQWiCrf2AQi/qmgIpDoK+0Y2AMJ+sfAOc/TtYo4M2lGfYvCl361dkDI1G5q1GbEcbmZ966XZyImK/X2r+nE8xMJc/D7NHWYEZvJZQVsW+sXUeUdfIzb6s1sFN4PQ+zC82RketjDcrTLi98tOFfFA6hOwdDg1M1Ovs7ObLLVpDRjZvNUZzzuxmDAUURMzsdRWBgLXMk86uHOPrkN/4xi1jXR7usQd5GO89vN57O75bE35x9rDOHJJytjS7Q1zhaBjXebXbjaXN076j9beORxpU5BB8m/H7vQdrl9eXKmE2SU6xqNxvPenY5dPzDR3Ufag0cFxzQqwGuHsLNmbDfMYhdXOzjE/E3J2fITEq2+Ok4eHrY2C55S8eTRXloQK8GCKxrXaKDqwbuCY37xtZtKMOusDootLvmZiLCjBZM8ywnqUnPs3yq1nWOYre5jC3mHMlu8yzjOm9y0LCJ9Jg+wH1gLsd8zKE5m58NjXTNTXRdXUDbiG263NiEze2ciHjmFq6/TmgeP+eo2VaQ29Gom7fUCELrzPmRI+cX9BVlU9IlMD+hVdec58/J3D8AppUY/WrC51k21+cryubj/m7zNzdF5vy9logRhM15Mx2cdaPP1eocYdqcH9QhYj5Ol/2LGDnalqp5lp19inHbp/jmiba4f9eI4xsxz68xj3JEuYPrfKiOAxbteNWnAfMsh86bc+7dyGMRee24zMUMwc9Gm2s3lohz6nLeYh8z+7vYowWHz9Ebfi1ErCdiXQGR13XE/MNRjr/r8Xa9PiL/5szjF/2Yx79/0bfpXifi2o9H8PfH/XoKrNP12Dg+Hz7Pcny/U+YxC36nwHUU529jXBI55xHbDZ/nOuwzYd/fPrcE1hd5riPOY/BaqW9uaovr8XX9O2gtUjTPcpz3SuY9Sfi9kmNe5Ckz7brYs5vYCYYKq8y8n4pcl2N9mMvdRdzHAQS2l4xmPs8ydzxF0ehsoHXNtaxgOUlNPVhuzgKBckQf5UBA7itOYq5lkZbH9aZUJE7Rg08RERHTJJ4q+hnZ/r/z3B2P01omkFIzbGly2qR73KeX2lzFSWORiIiIiIg0rqEzvWQDBza3nkAZBcvSFJ2u8QNZpBkdItovLCCdZKaPEhERERGRhN3xFEVFRdx/TTV/LCzkN78zK7RsCpalyTm9cA57tvlJL7CnjbJfOVk+KhowKraIiIiIiCTgd7+hsLCQwsLf0BpvwdVnOUnqsywiIiIiItJyKbMsIiIiIiIiYlCwLCIiIiIiImJQsCwiIiIiIiJiULAsIiIiIiIiYlCwLCIiIiIiImJQsCwiIiIiIiJiULAsZ9awifRwzJ3cb/lE2ph1RKTF+cmVb1Ay4jF+YhY0Z/mvc2/pAeYEXm++ToZZJ+WG8/iI9ay9crhZICIiIimmYFnOrM2vsm/cfewcdx8VPrMwXJsZc+m3+gHamwWN6Gxss7nLmLeTOaUl5JkFrVH+BN4qfZIl08yCVq7LIv6jVzvKP3mEv5hlzVnJbbzozWauN5t1FWZhuNT9nWzi4U8qaN9rBi93MctEREQklRQst0g30dWZvQ28Ft5kVmwBepK+PPx79pjR06wk0gx5WVL6JKWOV7MMwjs8xtpBORzfs5C7D5uFkpTD0/nfe06QO+gNHu9gFoqIiEiqKFhuwU5ue4mddhZ3Z7EPsgpaWMB8E11X30NXtrMn8D3H3Uclt9N1kllXpBmZNp3S0pFkbFmC1/sQXu9DzN9yjNzCJ3lrXq5Zu0mb2usa2h/7Gy9+uskskgb4y6cv8eGxdlw7qIU1bRcREWlCzsnMzPy+b99sjhw5wqlTp8zys+ryyy/Hd+TLJrdf2Pvm9/mb5L7VnrqWrqsLaLvtJfYt3Gsv7Un68nvo6vFRMe5ZjgdrB5YH3vs5tGgONZuDFSzDJtJj+gDaBhcY67HLTxbfx6EVwUq0X/g8OZ22s+fOVzkdWhyj7Ca6ri4gPaymU2i7bWbMpddA3Pc3grle5/6bZSbzmNUvY95OJg+uZp13NRlvzmJgml1Q9z7LbrmNKkfdvKUHGJ0Tel+7ZT4vzl7mqHGW5L/OvTOvo2NwQTnrvPmUAbCA20vHk+WoHs5ZNxFelpSOJBQOVrLGu4hX7Hd3LX2SsTlwfMsSbp5dHqzlvjyX+W9OZVDg2HOMrQseY1ZJ8GO2eurlT+CtmXlUFT3E1MWhT9219EnGppcx/5aV9LC3H0258VmmTae0MDP0vmID3iml9ht7f7DWHVhK8HuGjolzH4L1ouyvd94jzBocSkOax9Dap05sXfAY/xzr/D6B7QWOU/g5gdA2MdfZ4THWjriGqq2jYmaVrb+X4I+Q69+AWYeKVcydMjO8/KqPWXbLQfId16bbumJf26Hy2qJsXnMcw7ylBxidHvk3HL0s0b+TyYxy/l5E2/+ALosoGZRDeYzjO+npIn6WdYK/vzCRx982S0VERCQWZZZbG/+XRmB6D12PFgezsnu2Qdfpc0kf5viMHQjjzFQv+pJLGyVL/WcOBffFbweqoazxzoig1cP52WELIg2bSA/74UFgPRW+LHKCfZMT3Wa8chldOovcT+Yz15vNXO8qfGnXMXnpgmANK1AuZ53d73GuN5t3O09nVH7Yis48O1hgS2Dfs5m7oJohwX2fyWv28mVb/PZNf+g7zE0mUM6fwFtGNnVNRSZjS6dzl13llSlL2FoH7QePDC5j2nSXQNnLktKpDKrZ4MjMwqCZjzDfeWzzJ/BWqR2Y2vW83pUwdgJeR7X6vDLF/uyCMo7bwXFgu15vZNBqBaWB8g2U54ykdKm9xfxr6Z0G5RvDA2WAV3ZUApnkJdgc+66lTzJr8FHWBPZpQRkMnuqSpe7AoJlPMpbAcVvC1rpMxr45AS/lzNrovn3vDbm05xi733YEysBPul5FeyrYESWQs4LDA0weDNsWhK6fNYxz/A0E6lQ7rrFV+HLGRw6olXYdk0tHURNYV1E5HQfP4nbn/tZ7badSYn8neUunw8uOcnv/75032VHL4fAOyoHcy+40S2yTuDoLoB1XDB5qFoqIiEg9FCy3Em1m3E5XD5zc+0EwWG4zYyjp+KiY8edgvdMLX+OQ30PX0Y5AOPsi2uLnqw8CWWp7oC7H586G0wvfoQZIL3g+5qBc7UcPoK1/O5XBLDscn1FMDVlc2sj9m31F2Y6s0Ew+rgDSu9k3+JPJSAcqtofdMJdN6cf6iOxnPSa/QHFxcdTXC1HutaPq0ZmO+Cl/25HRKrmNFx2ZvFS7a2we7evKeMGRmXxlygbKyWRUMKgrZ9Yt1rKxS71WUFyYCRUbwjKa3nnXk0sla4LZWiidvZKtdR0YNDYUBge2GZ7BLWfWlMhANTW8jBvcgeNbVjoy3KVMLaqEnOuZnx8KPL/cF/5JAPYd5TiQ0cUMcmPIn8CoHCgvcmSDS1bywpZj4Q8dbMe3LHFkucsp/eQYpHWiB8DiPVZw1t/5KCEX71UdoOI9I2s/HO9l7eDQDpY4FztNG8fAND/bFoRf81Wz80Pvg3WcgeVMXisqh7TryDcCd1+RY12Lt+MDOnZx/AGchWs7XhF/+4tXs60OOl51Y5RRtpez4xDguTxKU+wVfOQDOME/trxjFoqIiEg9FCy3YG0H3hMc9MpqrnxfWLNsT08P+HYbWdO9fH0U6JQRmtLpwJecxBOZcT7rrIywlQ3OIsf+ruH9lW8iLSv8IYHFxyk/tE2P3kCy4fzUGAFP2ZRs5gabaS6jqgbIGc+chma1lv2KgoKCqK9fRWnFGdW+amrxMHDmzjOU5faSlwPHP/nQCFIr+bIO2nd2NFkOBpcjKS0dGREUh4K3PeFNhSnnnzVA+iV21jjaNhvRtF7kumRgrSC4Axf1CF+cClbwXUmZsxk4UHr4KNCJy43zW3U4fN9KZz+GN9jsupSyCiCnVyjIDmTCd5hHMYdOHeC4P/ow0Xn9c6HuY8piPBzK658LVFNl1nELhCnnY+N7Rjjj13ZD2L8RMezzn4AO9sMMFyt+XUhhoZpgi4iIJEPBcgsWHOCr2AcY2WKyON+DNeiXMWp2jhk/bn6VfeOKqcFD1+mBetEzuWfa6YVz7ObSxaFMc6CJ+LAM2hoPDqyXs5/22VM2xW6emTM+OFdr1CaXZ1LJbbzoXYUPDwNnBuaRTcW0N1HkX0IG0H7w1LDRn0tLnX2JHRYvYo0dg4VlTAHI5KI07GA6fDTpsH7F9jbN4LAxebt0CjZ1Dtu3mXnG31PqAucenTsAmYw1jkVYn+kEvLKmjOOOptjeG3JpX1fG6vqC1Ah2y4qagxH9fyPUVfO5uczWsXOMzuJuzvS1nQhz3ubS8PEMRERE5MxSsNwarHjWmtM4a6gjM2xlVvGF+iuHvSIG5Ar167WCb2ef36bC2sew77q5ipPmyODO11luSg5QNbuf3UdxvtXkMlYfxWhS3Qwbwvpbzi0qt/tgN1JQUXKEqkATYEdf3+ArLHNs9fsdm3OM8opj5BYa/ZDtbDQVof7KYa9Ak2t7mwk1aW4gK5t7zNFfOfw1dXGgThQ9OtE+wQB/X/Uxe5CuyO15vW4DntWj5EN21wWaYltZ/OSy83bWNNgtITm11dEz19GdwWs7XoFBxypWOfo01z9/s4iIiDQeBcutxPF1262m1MHssktz63iteNYOmDtxQcxm2VYT6GSdPmI1E429jfok1tw6NdtM1jLW32IHzIlmy1LdDNu0ON8OKjqTEdFst9p1eYQbHubVoiKKip4icmYvt+bWUeRP4Fd2v9+pU96jnA4Muts5IJfZ3Doae5tXXVtPPTdWE+4I9QXg8TS3du0XjDVK9ohMqCeLazW7DonW3Dp59kBfOb24K/9aeqe5NCsHoIKjx6C9x+1AWT6v9kNaH/Ji7FvZjnL3OtMGkGX2PU5GjGs73AL6RP8q9arv7yTjhj50xM+2NYn1ne7haQfHjuLWxR1g6MxXKSoq4tWZGuBLREQkUQqWW4vNr/K5kV0+vm47Jz0D6FXPqNZtZsyNmLe4fe8s4ChfB6ZssjO46b0D66pvOqY4BPpKhzUfD2m/0KUP9bCJXJoF+N6xp5PaS8071hzTPeIZzKuebabWAm43R/PNv5HctGSzZamTMW9n+AjCsfqOBvqAjo3d73ro4CtoB0A2V99hlgYCsJEuIzQ7eVky0zkQmN1/OS2PXzk+98qaMo6n5TErMMK0K3ubEfVymb/UEXzbAXAoeDWnt3KyA3CXgbPAGlhrfQUu2XCnUlZvORZxLLzzJjDIGCV7X/UxSMvFa6/LnB4KgMUbrIHNZoZGFW+wxXusQdZm5tE+YmCvgE2UfnYCuvZnqllkq5q93m4OHZ7VzZhXEupPvHg12+o8DLzb+beygNsLc6FifcKD4cV1bZccpBbI6h+4puubAioO9fydWMG0h9wbAs1ArFHAYzfDvpP+XQH/P/mLWQTAUIZdYf3VtbvmZpeHVCIiIhKL5llOUvObZ9kxV7Kv2NH82D2orXGbL9l5p+g350eOnIu5pvg+vrhkLr167gvWteZGdu8sfNLcX4BJD9CvwLlh55zH5hzRFnPfIXLfLFHmlI65zfhYc8ISMcpvhIj5Xq0RtJ1zu54t5vzPbnNEB00rYU6hM3w054+1M8u/+hHtOMAfC3+DeYrAnsopov9uYN7j0HzI5rzF7vMsuwe15mcjt+kyH7NRp7zoIVZ3eYRZV5VHzIXstl1zm65BrTkqtzkXs9t+Ob47BNZxhHGlIyHKMQrjnN/Z3p65r9EE1hezflzzLMczt3D9dUJzmzuvOyvI7WjUjevaNv42fUXZlHQJzOVs1Y2Y+9nB3D+o/+/EXJ+vKJuP+7vN32zrsoiSQRl8uPHnPHzMLLTd8RRFo7MBzbUsIiKSKAXLSWrawXKtuUhEmiX7AQHm9FZnnxUsV7ImOFK2u6nXrufnXSt4Y+306FNISRKG8/iIGVzrLyL/w+VmocMknir6Gdn+v/PcHY+jCaRERETip2bYIiJNVqip+LhA0+H8Cbz1prOP9tlgT7u1ZUPMQBlgyZ6/cZwcfn7tnWaRNMBPrryHazuc4MM9sQJlGDrTSzZwYLMCZRERkUQpWBYRacoWL2L+lmPkFoammapy9Fs+83KZ/+ZIcoP9xutx7BHGbK2AroWsvXK4WSrJ6LKI/+jVjvKt9TS/Liri/muq+WNhIb/5nVlBRERE6qNm2ElSM2wRaV0cfbHN/tVx+MmVb/Afl33C/974SJTBqCQ+VvPrqz5byJhPN5mFIiIikkIKlpOkYFlERERERKTlUjNsEREREREREYOCZRERERERERGDgmURERERERERg4JlEREREREREYOCZRERERERERGDgmURERERERERg4LlFu62ghWsnLqC5dcPNovCXfwgy6dada3Xy8y42KyUmJ9c+QYlIx7jJ2aBRPX9qF18ff9KvjeWf3e7j69vf8JYaujwGGvHvMHjHcyChrqTl8esp2TMekquvdMsFBERERFpkRQsixUo39KPtp+tZ8KSSfbrbhZ+YVZMQJdF/EevdpR/8gh/Mctai/wJvFX6JEummQVRDNjIqUEezntnAucYRT8ofZ9zc8bzr1GTjRKHY4+w4VA7rh2xiKlmWdKG8/iIQnIPFZG/dhT5Hy43K4iIiIiItEgKllu414ut4PfO97aYRUHX9+xBW06y48P/NouS0+Ex1g7K4fiehdx92CwUV11W8q+f5nLu1sc5b7tZCByewA//VM63gx7mmwFmYciSDxfy4bEcfp6qjH6H4VzV4QQf7lGQLCIiIiKti4JlsX3BoYZkkh2m9rqG9sf+xoufbjKLJIrvvNfxbe37nLd+mVkUsn0EbSrgm59u5DuzLGgTD2/9G8c7XMO9Vw43CxPXoRPtzWUiIiIiIq3AOZmZmd/37ZvNkSNHOHXqlFl+Vl1++eX4jnzZ5PYLe9/8Pn+T3LfaU7XcVrCCgstCy3ybJzFrj7NWyPXXv8w9fb6geMkjvG4WJqrDY6wdcQ1VW0e5Z5WnlTCnsDPbFvSjauwBRucECspZ582nzFE1Y95OJg/2hBZUrGLulJmOGvG5a+mTjGUD3jWX8NbMvGDwV170EFMXG5WnTae0MDP0vmID3iml9hsvS0pHkssxti54jFklgUrhy/859knGBr9XpIjtdlnJv6Zcxzl/ynLPKjvZddn6OD+MEVhPvXY9P+9awRtrp7PELExEl0WUDMrgw40/5+FjZqGIiIiISMulzHILFWh+PeHNnZw0CwF6PRYczOuePm2BTAqcA3wV/Jv5ibj8pOtVtKeCHW6BcpCHgTMPMJpVzPVmM9c7n211uYx+83Uy7BpWoAzbFmTbdbJZVj2K2+Pt/2vKGUnpzE6s9z6E1/sQ87ccI7fwEebnh6p45z1CaWEnti6w6ni9GyjPGUnpUq9do5SpC8o4TgcGjQ0sg7uWhgfQr0yxP7+gjON2cGytz3qZAfr3/frwLeX8oL5AGeDwJn5QC99eMTxiEDCnJZ9VADn072KWiIiIiIhIPBQst1Z7HgkO5vXSxyeBSoqDg3tNYkJxMv2Xh+O9rB0c2lFvNrN2y3xHlngZZZ/4Ia0zl9pLLu3sgbqPKQtmb6Fqdj9eMzPBcTvG1gWLeMV+V/p2OcfpwEU9AuVexg3uwPEtKx0Z41KmFlVCzvWhoLpkJTcXVULOSGvgrmnTGZsD5UXOTHMiJvPdFR6o2B7nH+MyfvAPP3TsHDNY5vAOyoEMTwqaYouIiIiItELx3Z+LxCWHTh3guL/CLIhQezi8CXHV7H7MdTTD/rzaD2nXMdmRbW6QunJKYwWz03qRyzF2v10evnzfUSOoBhYvYk0F5BY+aTXZrtgQkS2OXy7fd4Rza4ztxnBOdTXQme9jZo0rOHoM2ntitAePw9TLcuDYJ5SqCbaIiIiItDIKlqVJqprdj7lF5VbAXHqAOaUHmLN0gVktZbxdOgEdGDTzSUpLHS9HH2enV6ZswApvK1kT7NPccky91ppXuf9no8jf2Iqn/xIRERGRVkvBsjRdi/OD/ZXXVQA54xstYC49fNRuqh3ev9i9n3Eu898cSW5dJeV1mYx9cwKhHswtw5IPR5G/dhQ7LltPSaqmoRIRERERaUYULEsKpabpr5uyKXbAnN7NpVn2UB7+XRFFRUU8dYdZFie35tZReOdNYFDaMba+vIipGyshLY9fzcs1q0HJEaqAjC4uZUHlnFML36bHqhPu+86dgWrOiTmIWvxN4mNZ8lkFdLgKbwezRERERESkZVOwLCm0idLPTkDX/kw1ixIymVFvlpAXtmwBfXKAmoNUhS0HbhjGFfYMU9l9Jpml8SlZyfoKIkbIjjBtOrOcA4HZ/ZfbD57g8rlKvqyD9oNHcpdZFGQP2JUzIMbcyU72gGC11ZxjFjl16U8uUOXXXNciIiIiIslQsNwi/RvzA1NA3dKPtkDWsMC0UI9xm1k9hf5y6BOON3jKomWsv2U7fQJ9lUsPMKd0PB3DRtB2eHsz//Bb/3vg4xVmadxemfIQ87cQ2W850Mw6fwJvFWYClayfHRqQy+q/3IFBM81Au5xZt2ygnEzGOta3xJj+6pydH3MuuXw3IHy5qy7D+a4jnPfOhJjBsjUw199YEzP7LCIiIiIi0ZyTmZn5fd++2Rw5coRTp06Z5WfV5Zdfju/Il01uv7D3ze/zN8l9qz1Vay46o6Zeu56fd63gjbXT651CSizf3e7jdE45bR4dEfMJ1ne3+zh90fuc/1yMYLnDY6wdcQ1VW0dxd0OD5S6LKBmUwYcbf87DGhFbRERERFqRWPflIklZsudvHCeHn197p1kkUfyg9H3OJZfTtz9hFoUM2MjpnPqyysN5fNA1tE9VVvnYUY6by0REREREWgEFy5J6xx5hzNYK6FrI2iuHm6Xi5vAEfvincsgZz79GTTZLoctK/vXTXM7d+jjnbTcLQ6ZeO4NrO1TwRqqmezr2T6pox7W99OBDRERERFoXBcvSOA5P53/vOUH7y4Zr2qF4bR/B+Vv9fHvFcL43ir7zXse3Fav44fplRolDh8cY2fUEH25MZfP35dy9tojyroWUjFlPiVoLiIiIiEgroT7LSVKfZRERERERkZZLmWURERERERERg4JlEREREREREYOaYSepqTbD7tSzW5M8lwDf1NWZi0RERERERJokBctJUrCcOAXLIqlz/vnnm4ukmWqKv9ciIiKiZtgiIiIiIiIiERQsi4iIiIiIiBjUDDtJaoaduKbeDDtv6QFG54Te+4qyeW2xs4a0SvkTeGtmHlVFDzE11vUwbTqlhZmh9xUb8E4pddZogMl8e//DfPePx4Nzbae8GfYlw/nlrf3wBN77d7LyPzdRHV6r2es95n7yL0zRd0vRMQv8Xg8bXsADeR5OlBXzvzal8fSDQ+iOn+0ri5lXZX6qqfIw+84CBnhgf8kf+PVHZnmcrh7C2vxuUPkuY4rqoq9zwEa+/im0eXSEnv6LiEjK6d8WOQsWcHvpAe6dN9ksSEre0gPMefN1MsyCBJVNyWauN5u5C95HM1WfJfkTeKv0SZZMMwuagcWL8HofwutdwtYUPxf67vaH+VfHcs61A+VGcWQT//ncczz33HOUVJqF4qpRj1kdX/mt/37WbALlxuLns6+s/371hVG0fRU/rM3l9P0r+d4oEhERaSgFyyLSbNy19ElKS83XI8zPN2u2HN+P2sXpHD8/XNp6M2edb/wl99//S4ZfYpa0LJtrrKcsR2r8ZlEz4mfe8j8w5pkGZJUBvviKE8CJo/U9eVrGuc+t4ryO13Hq9ifMQhERkQZprfdeItJc1ZUx3/uQncV9iPlbYNDMJ3lrXq5ZswV4gm8HeTh364uce9gsk5bNzqb6v2K/WdQK7T/qj5Fl/y3n/akccsbzzQCzTEREJHnqs5wk9VlOXPpDm5k8ONi7L0Ltlvm8ODvUzDRj3s7w+hWrmDtlpvX/+a9z78zr6BgqDVf3PstuuY3gfdW0EuYUOoOpctZ58ylzLAmy112bkj7L/84LxbeQsfVJxj32V7MwhSYz6s1ZDKxZxdw13cKOjXlccemf7VYnXnctfZKxjnUFhfXZzWX+m1MZlBYoPMbWBY8xq8R6F3UdtnK7v/BdS59kbHoZ829ZibM3sPX58HWClyWlIwmddffyjC1LuHl2ebCWd94jzBp8lDXeRbxCeJ/lsv6O/ayL3A+L/V1rYvRZjrN/8/ejdnFqULVrf0xnn+XON/6SCf1Dfyv+HSv5z7+G95ztPeZ+8h2bdKsTEL1fb28K788nzfistf06Sp4rYjedGf7LCWTvX8nWCyeQn2lvq2Yo94/oBvjZ+Yf/ZNMRezuU8Nz7ncP6/h7c+BxFHwdXb6+f4OeiMvsQO7YVEPxuxTA6xjaJ87gGRD9mIYH1mdtK5Pf6F4W3cjPvMuY9D/81oS/t7OXhfXntfsNfRdaz+kM7M9ehPsaW6H2kA32qA8LXFf96yOgdtk9wkLeeeZffh1VKlNWv/1+8z/nPTeAcsxjgjqcoGp3Nib89x8QF75ilIiIiEcz7L5FGUzW7n9Un2LsKnx2gWe+tVyhYm8yoNw8weXA164Llq/DljA/1TS65jRftsnUVdnDsWNdcZ6Cc/zr39t/u2NZ8ttXlMrq0hLzg3rUQOeOZM7MP5Qvs71pUTsfBs7jd0QfYCpTLHcc2m3c7T2dUEk2ZrSC1kjWBTG+R1XHz+JYljuDPy5JSO3gMywaHmk+/MsX+/IIyjtvBcaCu11vPwFrAK2vKOE4Het9gh8bTplNqB8JmBjq5/tDHyBjxJGMJfIcNlKflMWup16xYL++8Rygt7MTWBYHvt4HynJGURqxrMt9d4YGK7TF+qDsz/Jf324Gk1Xf2ueeeYx1DHU2We1N4vx3I2eXP/WEn9J/A/WN6h68ulbqPZtBXK1m5w4+n+2h+OQJKnivhIB6ye3UO1cvM5/5bO7HV3reVO/x0G5FMk+veFBbAusB3fO45Sio99LvVbV3ZjL41mwP2MXPbZu8x99sPAMKP2S9vdOx7QjrTu7sVSXbr0cDjnjmEtROy+HSl1dz52TI/3fMLmG0O3GDUG1NykHZ5BTx9daBCN55+0A6qnwmsCwZMMNflYfadt/JAHmwPrOuZP7CUvo56oebXY0oOOj8cZtjwAtZO6MuRktB63qrsxs0PmttM1DJ+8A8/dOzDd13MMsukPtkAtLtiGEPNQhERERfR78FEzpZp4xiY5mfbAmfmdyavFZVD2nXkJxrslNzGi4GMNADLWL+xHMilT6LrSqEbH1lNcXFxlNdqHv2J+Yl4lLPO24/1gezp4u34gI5dAoOpTSYjHajYHpZVL5vi+EzcvOTlwPEtG6wMLMDiDWytg/ZXXUsg9PPOu55cKlnjyJyWzl7J1roODBprBogN075zppXZHZEJFRvCMsbWNiF3xITgvsWvA+3DMsWlrN5yDHKuT7C/tJdxgztwfMtKR4a7lKlFlZHr6jKc7zrCeZ/81rHQ0Gco/TyR2dPqvxYF33e+cRDdOEiJM+N5ZBPrdvghc5BLIJkaHk8dWwNZWI+Huo1F7A6UXXixo6afnX8IlVXvOYAfD52cVeKymyIjq7v7/Z34zeAcwAMHHMes+q9bOYiHftfZQewlwxmUCQcd+xw4Zp7+Q0ku1K1m934rC3twX3CtSQrP2m7etIv9eLiyl9ly5yBvPePI7n5UyX7gknSr3rDhfenOQd4qCgW3mze9w3a/hwHXdwsu4+q+DPBEZoo3b3rXPXMcVTdutkf7dvZn/n3Ru+zH2GYSztn5Mefi4ftLzRLLio8PAHDiH5tRXllEROKhYFmanLz+uUA1VWbwFhH4NcC+6rM+4vVfHxtHQUFBlNc4Hv2L+Yk41FXzediCmbwWlrVfRlWNnYFeuiCsZsLyL4k+AnnNEbt5ci7eqzpAxZ5QQA1AOf+sAdIvSSJwdVFyxNGS4Fp6p8HxanN44nJKPzkGaZ3oYZTEo3xHeDPp0sNHgQ5clMjKpvUil2PsfjsUxAOw7yjHzXVd2plv8XNO+AkN07tHN/AfYHfUpsl2NtN/FHMQ4eSD0jhVfhoKNPFz1NyBgJj730BHqnEdHipim19w1A9c2JnOQOde2Xg4yKdGs+zqmjogjc5JPmCo/ut/8txzkc29E+b3sTksSLVGzm7XKdjPwRLR3/kgv37mD3bTaQ/DcjxQWWk0f7b7Sl/oYZi95Bc9u7lsMwlXZ9LddQCzg3xUGb7NpBw+yDnA952j/Bvxu99QWFioJtgiIhI3BcvSNEUEfSEdO8fo3BpF3tIDzCl1vGL1d26g8IzxLeQA7QY95Fj2Av9ufugMKpuSzbItfitgto9HUtN4laxkfQW0HzySuwLLpo1kUJozsMzkojQgZ2TEKNax+ignzCVwrzpsBKRBnbg8oWxwFPuOctxcVg9vl05ABwbNNEb0nplHe7NyvTrT+ULgq+qofWSDYtRJS0+2WXHTY42afb/jlU98ucpqqr8Kvbv4Qg/Qjfywdd1v97luKdK40GM31X7w1rDXzY6+7eDhsguBr/xsdi5Omsv0TwGeC+luLhMRETmLFCxLs1NbXWEuisnqo+tnW6AfbyPPpRyeMX6TCuDE1icdy37F/4kIqs1Xss2w4xPqPz6fbXXQcfCsJALmXC5PB8hkbCDoK8wMDsZlqeTLOnsAK0cf5ODLdYCsJPToRHuX7K+7o/zTbLWQjB6daM8xvtxnFkRnZaOPOforJ9Y3O5wd4NnZ0GTV1UQLo5sX5+BZgT7Lzz1XQvTes07hDx6++MoPHAz1Vw571TPIWLNhz+NcGeqvHPZavtsOjiMzzY0mIhMuIiJydilYlrOggpq66Bnish3lkNaHPDP7N20AWfgpfzt81ObPq/2Q1hn3bmoL6JMDVKxPok9u42qUZtgJW8b6W+yA2e183PEURUVFFP3u4cgBcaaNZFBaZOAXHvAl2Nzabk6d0SWRaaDsPspUUrYYKPmQ3XWQ29/cYrQm4U52nTjc1T8z8cDbrbl1NJ9Xx+x/SSCo82TTO2qzYLufbOaVEf1sozU1Tlxo4KqzJ9DcfCfvJPN9LulNtgf8dsqzoc2towlkvgv7mCUNlNGNKz2wf298jwYs8QfB+4/6wZPFMLP5RqI+qozSt7obV2fCiYqDDcted+nG98A51VFG9r/hYV6N9nsmIiLiQsGynAWBfrOj3EdgXryabXUeBt5tj3wNwAJuL8x1DXqrDlcDuQxxzYxagTk5A0IjX08radRm2E3bAm4PjCgekH8juWnuGfvA6LF4rmDYDUZhnIHfK2vKOB73yNFWJjqsaXdMoSmpyovsqZ4oZ9bGSsgZGTbytXfeBCu4XxPIPtvbCg5GZk5vFcO06YzNcW4zTnbT9dzC0EjgUR3exA9q4ZurnjBLgoIDU91aGBYMd76xMDhwl1WnG/nOka8vGc7o/h78O95x9CuOh9W319O9t53NtqaJ6mfGPmecnWV3Pji4ZDi/jKsZdmeGF/TD49/JusCAZB+/w05/5HFtmBSOhh3Gw+zRfWnn38VbjkGz4vH793ZxwtOXBwpjH6XAAGIDJgzhF47lw4YPSXAE64O8VeanXd7QsM/9onAI3TnIxrAprRL3fb8+Mfv5Dx18hTVdledH3HyHWSoiIhJJ8ywnSfMsJ+6bOudQO/a8wI7AJHyu3/rKw0XMyRw2z/ICbi8dT5az7GUYGzaXslEnTIw5met1hudZxphf2o3LHNW+aHNK2/OS4v87z93xeMQIstacxC6Z2Ig5iM05jy3hTbYDIuuGzbNsJsCjzFEcMZcxlaG5k4PCt3V8yxJuPjyS0kIcdd2CaHPO5ij7ZjO/p+txizhm8c6zHBmwRs4HbM2P7AyJzLl+zTmFncLXF76u0BzKhM2z3O+rEp5bu9uYI9n+bKVV5jo3sT1Xcp1j/6Lvm3MkcPM4HKTkuU+50pwXuk9hZN9je39M5tzUEF43+n6Zx8ySsnmWI/bpXcY4RrQOznnMLp4NNqeOphtPPzgkoq9w+LzNuMyjbMyzHDF3soM/fD/M+ZrN8uTY8yx/uYoLXos2gvwknir6GdmguZZFRCQuCpaTpGA5ceHBsjR3gYDPDATJn8BbM/NoHy2IlQQ8wTePjuebisgAIBQsS3OXyO/1Lwpv5eYLUxFctjADNvL1Tzvzw6V9OfewWRgy6ekifpZ1gr+/MJHH3zZLRUREwpnJChGRuPTo3CHUT9jJOY2TNNBvOXerNXL5NwPMMhGxPME3P7W66cQKlLnhYbxZgK9UgbKIiMRFwbKIJGVf9TEgkzxHv2CAu5ZazZrjG5la6nPO+r60qYBvfrqLb7uYpSKt3WS+vX8839S+z/kxm18XUfSrH1G9rpDCX68wK4iIiLhSM+wkqRl24tQMu+Vx7Xvr2jdYGsbqj/ndPx7nh+utfvtqht1yJPJ7rWbYhgEb+fqnuPbrFxERaSgFy0lSsJw4BcsiIiIiItJc6EGsiIiIiIiIiEGZ5SQ11cwyQO2pWnORiIiIiIiIJECZZRERERERERGDgmURERERERERg4JlEREREREREYOC5RbqJ1e+QcmY9ZSMeYPHzZl9REREREREJCYFyy3UXz79OflrR/G/98C1IxQwi4iIiIiIJELBcgv3l083UE47OilYFhERERERiZuC5VYiwzPcXCQiIiIiIiJRKFgWERERERERMShYFhERERERETEoWG7xKjh6zFwmIiIiIiIisShYbvE28U8/tO9VyFSzSERERERERFwpWG4Flnw4ivyNRxk5Zj0lYxYpaBYREREREamHguVWYOq16ykZBC+uHUX+2uksMSuIiIiIiIhIGAXLLd6d9O8Kxz/bxF/MIhEREREREXGlYFlERERERETEoGBZRERERERExKBgWURERERERMSgYFlERERERETEoGC5hfvJlSPJ5QSfHNpkFomIiIiIiEgUCpZbqJ9c+QYlY9bzH73aUb715zx8zKwhIiIiIiIi0ZyTmZn5fd++2Rw5coRTp06Z5WfV5Zdfju/Il01uv7D3ze/zN8l9qz1Vay4SERERERGRBCizLCIiIiIiImJQsCwiIiIiIiJiUDPsBjhV2zT3S0RERERERBpGmWURERERERERg4JlEREREREREYOCZRERERERERGDguUGOcXGDZX4NlTiW6z+yyIiIiIiIi2FguUGOZ8RIzPJGplBefcqBcwiIiIiIiIthILllDifVR+0hYu+YbJZJCIiIiIiIs2OguVUSvuGXHOZiIiIiIiINDsKlkVEREREREQMCpZFREREREREDAqWU2TZ523MRSIiIiIiItJMKVhOlfLz8FPLqEe/NUtERERERESkmVGwnCql7eg7MpP1nT/Dt6GSXQqaRUREREREmi0Fy6niPcGuDZUM2JlJ1shM+j56rllDREREREREmgkFyykyeehJPHRk+xKzRERERERERJobBcsiIiIiIiIiBgXLIiIiIiIiIgYFyyIiIiIiIiIGBcsiIiIiIiIiBgXLKXGK8T8+Cfsv4LdmkYiIiIiIiDQ7CpYb5BQbN1Ti21BFbl06j08736wgIiIiIiIizdA5mZmZ3/ftm82RI0c4deqUWX5WXX755fiOfNnk9ivgVG3T3C8RERERERFpGGWWRURERERERAwKlkVEREREREQMTboZNkBt7bfmIhEREREREZFGpcyyiIiIiIiIiEHBsoiIiIiIiIhBwbKIiIiIiIiIoVkEy9+P2sXXj/r4+tFdfNvFLG0hLn6Q5VNXML+XWZAiAzby9aMb+c5cLo1r0gP0W/08/ZZPpI1Z1qRN5tv7ffxr1GSzoIGs9X79qI+v71/J92axiIiIiEgT0SyC5XPW9+WCR7M4fyv8a0pTC5j/jflTV7D8+sFmQdPRZSX/+mku525d1TxOeJN3E11XP0+PGT3NghZkGee+U863gx7mmwFmWfK+u/1h/sX7nP9oFhc8N4FzzAoiIiIiIk1Es4qdzlm/nvPw8P2lZolE9wTfTLmObytW8cP1y8xCGDaRHquft7Kfq5+n3+q5pA8zK8VXr/3C5+m3+gHahy8OF8i0ury6TjIrtwArnmXnuPvYeeernDbLmrrtIzh/q59vfpqqB1RP8F0OnPeOgmQRERERafqaVbAc8H3nVDcNbbm+HzWKbyinzWu/NYuswHX6ANj2khXQjbuPneNeg4nhAW+bGXPpN30AJ4sDde6jwueh6/TkA9wax7oCr0MrzFpytp2z/kV+WOvhX+NS0GS6S7eGr0NERERE5AxpZvMsP8E3j47n+62Pu2dJE3D99S9zT5+2wfcnP36FO9/b4qgxmBkT7qJ/h9ASZx3z86b613eSHW/ezcIv7LcXP8jyW/pRvXkSu7uvoOAye/mxnby08hneC3wsIbGOV0/Sl99DV7azJ2bW8ya6ri4g3VfMzhl/diyP/Hz7hc+Tk+WjYtyzHHfUDDPpAfoVZFFTHD04bjNjLr0GesDYZrTlwX0Mvnfbh/rqWOUU38cXl9jbMeoFtx/FyW0vsW/hXuuN/T2DIvY5xDpuofdh6wlst+c+9txZxcWO72DWS0TGvJ1MHhz6LrVb5vPibPMasQ3YyNc/zeW8P2Vx3nazMAFdVvKvKddxTkPXIyIiIiJyBjTLzHLDDGbGhBXc0wd2vDmJCUus1+8YxYyLQ7VuK5gIJaHyCZsradvnrmDf5Pfeu9suW4/PDo6DdZdMCg+UL36Q5VPvoj87eSlY51W49kGuD9UCIGvYCgpYH1p3h37ckWx/6AED+AY/P9gZJQgC8FwUe+CpSb1Jx8+hdWagtxf/Xj94euBxa7bdAKcXzqHCB2QNDTX1HjaRTLdAedID9AsE88Es9W7SFt4UqjNsIj1WF9DWkUGv8GWR49JkPL3geSswHXcfO8e9xCF/Fjn24FynF86xP19MjR2sOjPjYYFroPn1uJc45Hduwcnq+5zTabu9vfvYuWg7DLyHfs79B/AMoNfqoZxaZNcr9tF24D1JZfbzlh5g8uBq1nmzmevNZu6C92HwLO6dF6XFxvbtnAd8c9UTZomIiIiISIvVzILlcs6pNZclqNco+ncwsrrAe+89Evb+9eLwcvasZ8cxaJs5OCLArc9t1/ajbUSGeAsLi10yxp+tZ0Lxf9tv/pvdnyW3TYDvrsqF2o/5wWGzBGAvNe/4gCxyVj8fGZzZ2vfOAo7y9WazBE4fOQp4OD/bLGm44zNe4pDfQ9eJE2lDT9InDqCtfzt7zOz20KzIAJo/c8jxvv1o67OVjmD2+IxiasjiUnOQLr8z024fo0Z4IADQZsZQ0vFR4czsb36Vym3+8AcFtpriOdQEzsOK3dQAbS9JcJCx/NcZkgO+onzKAstKbmPNFj8dB48jL7y27bf8oAK4SM2oRURERKT1aGbB8jLO+RK+HTQ+6SmQbuueCcf28Z4zEI7LFg7Vmcvi8W/0vgxOVm6JDIxd+PYHAuWGmsz3FwFfHow+mNKKZ0OZz6wCe6CtyGxrY0gvMAf4MgcM20vNq9s56RlAr9X30NXj59CrRnPxYT/mQg/U7Daz3k43kZYFJ/d+YDQ193HKD23THe2fcal34EtONsoDgZ54enrA/2VEE/jTH+xz2aaPuijN1hORcUMfOlLOx4vDl1cdrgY6k5EfvjzgnBo/dOzcoGD5+359+JZyfqAm2CIiIiLSDDSzYBl+8FoWFyyt5ttHfUnMGzyYrmlA3eH6A1d73uOVjlewH3EiLu5CZ6D6qLP/clOyl5o7Q017A5nm8Oa9nbggxZnVyAG+HFnTgECWFTi57bXI8uyLaIufUweM5U7DMmgLtB14jxGc30PX6N2Pz5yjVRHBckDCWeM4XNrZA+QyuvQAc5yvwlyzasoE5kn/hhe54NERze9HR0RERERapWZ33/rd7T6+HgfnPZqVxI23nR1O6xK7WbM92FbbzwJ9h61X8WdmxTh8cZhqoHOnJPsdn0krng32x00favfTrYna4ZY2l3SC+oLVhpj0AL0GeqjxRemfG0/Wd3MVJ136FwdfUQbdagpOHklu8K5YPq/2A+Wh/sphr36sLzE/0XCBedLP494kHnCJiIiIiJwdicWaZ501T+u5/9gUvWlxPXy1J6FDD653DOZlur5nD9pykh0fxtMkupLaY9C2Y6ZZYLPLk+x3nDyryXpD+5kGmgRf+GMzy3kTFw/0gO+dyIxvStxE1wKrP/KhGcUc8kN6gdFE3A6E03u797e2uDe3jlebH/egbUQT6Iat02IPkJbVO6LZu/s2U6O+5tbRfJ/ugdrqpP/uAM7Z+THnkst3A8wSEREREZGmp5kFyw333ntv46Mt/W95jNscy6+//rHgaNjvHf0CaEvPnoFssDWCtnszbDtbfdkNYaNph2xhYVkldOjHPQX/5lg+mBkFkaNhp9IPPimHjn34rotZghWM2qM8O1mDTkHNO3b/4M2v8rnPasbszOy2X1gQZZTsVOhJ+vICa/CrGX8O9V8mi5ywgcj+zBfb/JBVQI+wgbpuomuwnj1IV0SdONgjcJ/cVmxMQ7WXr48ao3Un4fTCd6gxv1PUbabI4tVsq/MwcGZJlMG83FgPqWL2fxcRERERaWFa6TzL5pzHkfMim/Mo+wLzH6eZo1oT1/qCTbtDNaLOszxrT7AStxVE22Y86jlewybSY/oAxz7hMv+wJXKO4ch65nzBIY665vzDDoG5lwPrMecRjjrPcsQ6I/fN/bv6ObQo0FfanIfZEn0+aHueacchce5v9GNhrjNyu+Y2re991HVe6LZJzrWct/QAo3OMhRWrmDtlprEwMM9yZ364tC/nuo6sHifNsywiIiIizUgrDZZbj+9H7eLUIBoe6EAosDOD1RahYcFnyzWZb+9/mH99uYoLXvutWZgYBcsiIiIi0oy0umbYrc0569dzHh7+NW5lg/ouWwLNnh3Njyc9EHWOZmn+vh91L//q6OeHpQ0MlAEOqxm3iIiIiDQfzSpY/n7UKL7Bzw92Kqscv99y3tL3ObfjdZy6/QmzMGGnF86hwueh63R7CqaCTo3Ub1nOugEbOTXIw3l/SkWrBIByzqmFb4am4sGNiIiIiEjjahbNsK2mxFbn0PPUhDM5Azby9U+hTcLTbbUWaoYdzmp+/d0/Ut3lwW7W3RGofZ/zn5ugbLOIiIiINEnNIlgWEREREREROZOUZBQRERERERExKFgWERERERERMTTpZtiXX345viNfNrn9CjhV2zT3S0RERERERBpGmWURCXP++een7CUiIiIi0lwpWBYRERERERExKFgWERERERERMajPcgOoz3Irlj+Bt2bm0Z5K1ngX8YpZnkrBbdnqyph/y0pKw2slbfKjX/Bwr7Y8Pr4dy+xm2Kli/e16mH1nAQM8fravLGbexUNYm98N/Lt4dvluNpsfEsjozX9N6Eu7wPsmdKx+UXgrN2eG3u8v+QO//shZI/XOxjZbhsDfXis/ZlfbvzkBle8ypuigswYAw4YX8ECehxNlxfyvTWk8/eAQumP/blWF6j2xuJLxZJA1LXW/lSIi0jQps9wcDZtIj9XP03WSWdCytHlgF/1f3RgKEluou5Y+SembE/CaBQElK7nZ+xBe70OsqTALG2hqHQ//+CTlf7EC5TPii684AfCVv0kEf01S1W7+1zN/YMwzf+CtSrPw7Pp9kbVfY1buss7jGXA2tinJ+UXhray9szfDzIIkDBtewNoHh/ALsyBRH71rXT/PFLPdbxZGU8dXfuu/nzkCZYDfFqXj717Frke/DS8QEZEWR8FyQ9mBa7/gay7pqbhLkKYtGMA2cla5MXlPsGtMLf4PLmPEErMwlfx89hWuN51O1o3xrS6vAmZnmLVFpH5+5i23HjS02qxyAjbX1AFwpKaeiLq0HX3XdsTz48/YONUsFBGRlkTBckNMeoB+0wfAtpfYOe4++/UaTHygxWdDpfl7orAGT106Lz56rlnUuKr8HAFOHLVuTMP52b7SziIGX+FNIEVEGp/9kM//FfvNIoAlaazaD7lj6njCLBMRkRZDfZaTlkuHp6bQle3sufNVTpvFAPQkffk9dPX4qBj3LMedRcMm0sMOtPct3Btc3H7h8+RkhaqddJSbZaaa4vs4tMKxYNID9CtwfMBXzM4Zf7b+f9hEekzvwVeL3uH86QWk4+fQojl8Pdrehj/W94qu/TwfuZeH3p8oe5x9z4Ya+LZ5YBdX5VVTPnGE43g8wWWvjud/lD3OvmdzuezV8aQHy0zlxmfrd9fSJxnLBrxrLgnr+1te9BBTFwdq5TL/zakMqomsd3zLEm6eXW69ibP/cL3bNNdjirXedLcyL0tKR0LRQ6zu8gizBnewl0fpU+09wa6HaqhemxmRVT7/8pH88tZ+eDhIyXNF7A4UXDLcfTnQ+cZfMqG/h4Mbn6Po49DyRP52rf6CRPQPDNeNpx8cwiVlxfyvmr5h/RDD+mRePYS1+WlsX1nMZ9c7+7se5K1n3uX3wU+F+ikGRfRnjHObCTD74EZuM+QXhbdy84Wp6LNsfY/uwfeRxyKir7RLf80gu+6RmMcg9jZdv1us9cYqc5TH2n/rfNfx1jO7uMzuz2tVTfwYDxtewAM5Pp5d7udmx/e0+rwGspN2v+Gv3mXMe56w/QuvZzGvR7c61Fsv1FfZEnkcQsxzFKtuFBHH3WAe24j6zuvC3B+Tcd1GrCvW/jvORZS/t4TYv6N8cBl9ozx0nPR0ET/LOsHfX5jI42+bpSIi0tQps9xQnotoYy4L2kvNOz4gizSjf3GbH/egLX6++sAMlH1UBLPU9/F5+u3BZt3HZ9jLF23npB0chzLa4YFymxlz6VfQiUOLAuXF1GQV0G/hTaFKwIUTh3Jq0Usc8nu4cOJccihmZ7EPPD3wJNSc/Akue9VH7oXv88nELHZMzGLHkvch72H6z0vkuftv+cz+/Cdlfjs4ttc3MYsdCQbKQTkjKZ2Zy+4FVt/f+VuOkVv4CPPzY9fzFlXSfvBUlkyzyxPpP5wzktKZnVhv1w/bprmeujLm2++93ofwRgTD8cktfJJZnd+z17OErXWZjHXpDz156Ek8dGS7W/PrI5v4z40HgW4MurGzvbAzwwvcA2XoTO/u1l15tx69w0oaS7u8Atbmw1t29vnZMj/d883m2h4GTLiVm3H2V+zGzcH+lB5m33mrHTgFstjvsj9ziGufy/i2Wb9hwwu4eq8jc75yFycyh7C20DEAUapdPYS1Dw6he2XgWPyBMc9UcnXYNrvx9GhY6sjqv1XpYcCExL8jxLvNVEpk/7tx84MFXFlRHDrvnr48kMy+efrywINDoMTebslB2uUV8PTVRr3MIaydkMWngZYTLvV+UWhcjyt3QV4B/zXc8TAneN0S1gpjKX0d3zPU/HpMSYyg0D5Hl5QFjsMfeLYMBky4NXL/YzH72Pt38azjPIxxBMrDhhew1n7gETpP1vmw9v8gvw7ui98Ojh3rCnvAk8g5bwSlF/BxHXh6fc1kswyASVydBdCOKwYPNQtFRKQZULCctPJgIJyz+vmIIDRoxW5qgPTezvKeeHp6wPcONcFH7T25oBPg2x0WDB6fMcdRJ143cfFADye3veb47J85VOyDrKGOPtUe2h4N7UNbz1EqAplnPJyfHahXvzYPjCKdcsrvmRDKRr83gcoyP1w+ivTrw+ufecfYuuAxZpVY70pnv0c5Heh9Q65Rr5I13lA9Fu+hHMjoYtaLxzG2LghldUvfLuc4Hbioh1EtlerKmD8lEGaXU/rJMUjrRPgmv2V4r5Ow/wJ+G7bc4eMiVu7w4+k/muGXQOcbR9PP42fnH8xAGaCa3futjNbBfZGljcK/i2cdN82b9/g4gYcLLw6vdqKs2JFB8rO5wg+eC62s1dV97RG6nTffB/l1yUHw9OVmM1iIc5v12bypODwrWrWbjZVAZmbDBzJy5WH2oG4u2euD/Np8b2RWf//eLk7g4cpezmAtHvFuM5US2//9JX9wZGIP8lElcKEn4iFJPMJaGHy0i+1+6N7TDLwP8pazS8FHlewHLkm39y2jNyMyYX+J43qs2s3SMj/t8vqGro3gdRuePd286d0o2dRoQufImbnevOkda/8HRT4warhu3GyPNu38G/h90bvsx8OA681jVp/EznnqncumPW0h7Rvc/4VYwUc+gBP8Y8s7ZqGIiDQDCpYbYsWz7Bz3Eof8QFaBPcCX2V/5z9T5gKzeoeXDfsyFHqjZHQhMAfby9VF7PdEC73hN6k26kbUG4MCXnDSC4LB98H+ZcLNry2Q8uR44Vh3x+dMffswJPFzgbHJ6NtSVUxoIgAGo5Ms6aN/Z2LG6o+wLW1DKVO9DoWbYiYjYZuM7/smHcWSkv6FzGvirzzMLwlT/dR07/R763Xo/E/p78O9Yx6YjZi1L9V//k+eeC2+CnRwrGxw+wJfLaLjmSNp2ZstsmmsO1LN5U3EwM/WLnt3cBx0zg5iAOLeZjP1HI5vZpkxGN670wP69SQSpdv/yhDVkm6kUdf/9fPVF+JLfF4VnQON3kI/CrgG7r6sZeEf0fbUyqIFAdVivLNpFrCsw6FQal9mZ0l/07AZ+H5vN6zZR9jmKHDvAeKiUSldn0t3l77KhDyvCRD3njWPZ522A03Qzm+/YVvy6kMJCNcEWEWmuFCw32F5q7rSbOheHMs3OaZ2Or9vOSUdT7DY/7kFb/3a+cPYvtptZ79nmdwTez9NjRs/wSnFoc0knwEPX6c5Rup+n3/QBtDUrp9JXByOC5YD/cYl7IzVpyqrZVLwTP4B/J+v+Wm1WaARuA3wZ/WpTKSKACWnXKc1clCLdeNoY8Tusz3SqXXwh7VyCQzeRI5LH6jsaQwLbTKWU7f9Z0L2Tx24ebjwscs4PjIfLLnR5cNMAkYFrQChAT60Y10USAXpzPuciItL0KVhOpRXPWn2DgfShE0N9mTd/wFf+QFNsqwn2yb0fuAaWpxfOsfsYWxnrtgPvSThgPn3kKOB39FeO3rf5TPl/R87YLL6SMr0pvLUfnsqDHPT0Y8KYM9MfuamIzLilgj14kdGn0+qb2Ui++Cqu5uKBAaP2O/qSjnnm3agPE2KKc5uplNL9Pwus1gVm/9zAK9DkOkrWulG4tLpobDEeXrlp7udcRESaPgXLZ4Q90FdWb9oP+zEXelyaSEfYS82ddsCcbgyBvbmKk0DbS6IE0S7NrVPijqcoKiqi6HcPEz5UyTL85X64fEDE6M5tru1DO8qpXWkUOE0Y4Dr69ekj1UBnLqi3v/NQHv5dEUVFRTx1h1kWRf619E6D8h31N1pubPuq3foVN6bzqK4DT+dvzIIwvcfk042DlKwt4p0dfsjMp7CPWcvS+cZfcv/990ctb4p+v/cgeLIYZmbPrs6kO34+3dMIAazdDHX/1mSa+ybJbpYa2YfWycOwHA/4d/FWCpqVx7dNd1Zz5ESleP8bpBtXZ8KJioMJnWOzuXU0+4/63a/bRFUd5FPXvtX2saysTKpFh7V/UTLEH1Wy37U/sfsxi31MmsY5n3zpaaANB6P8UzJ05qsUFRXx6kwN8CUi0hwpWE6al67LHdljW5sZQ0kHat4xpl1asZsassiZPoC2YQN7BdwUuT67b/PJGp9zKeDjlB/aDiyICE4B2Pwqn/sgvWCuYzCvhpvUx46+PVcw7IbwstPPrqeGXHKdI19fv5LMPA8nylYFBy2zAuBcOk6wF0zYSP+R7kOjUFnNCTxcNqqe0bRvGMYV9r1Xdh9j2HFXucy/O4/2dWWsDk4ddfaUHj4KZDJqXpTjkHL2oDTdv446P2jnG39JfiYc3GgN6GX1X4ZuIwqJzC+f+dGwU+KjXWz3exgw2jmQUTeezu8GlbsSHCwpTl98xQkjiLRGQDaDh1Q6yFtlfsgcYoyq3I2ng6M/2xlLZxCW0Zv/SrpJazzbjAz8zOmQ4pfq/U/eLwqH0J2DbHSZ7immwPU4waWPvsPmTbuswbCMesOGD0lwBGg/87YehMwhYSNfDxs+1BpA7L3k+ptbAW43RoSd9wDrumiXNzRsX6MeM7uFgvvAX03hnNuDJdadh/uoFkMZdoX16KfdNTcTz79OIiLStGie5QY41Xc8PSL6AbvMqWwLzJMcMR9ygD33snN9UetyE11XF4RlZM26bWbMpddA44YlMH+yva2TxfdxaIU9H3Rgzmh7fmZzfdzxFEWjs8H/d56743Eix/a05ksO26cNWXxmZJWtuZYD+1VO+cRVXPDSw1xYHj4nM7gF027zLA/l4d/dz488cGBdIb/5XVihNTdxTvgyKjbgDY4aTWieZdzmMA7xznPOYRzOOR+z63zI9tzKVWHzO1si1uuYZzmizCG0TWue5QznnNDBzx6NnGs51jzLAyZw/4hu4N/Jyv/cRLCn8hmZZ9ntBts58q/djDlilGXD1UNYm98tjnmQzflozflqiX+b8bL3LeBEWTFLGWpPGWT1z45+LNz2L07Gdq0mv87+4OaxOMhbz1RydWCO6U3+0LEIfsbJXF882zTmnPbvCs5ZTPDcxbvNePY/cGzrm887Pq7nyZxTOLBfmMvdRczBjds83OZ3Na6LiLmHHcz9i+McJSriuBjbrK88TMz9M4+D+zl3Paa2+n8jYojxOxoU+HcTzbUsItIcKVhugFO1ie1XaB5l92BaGodr4Co8sbiS8d07smpkWtgUUueff77jXcM01b9dkVSwgr7QQw5pXZ5YXMn4i9J5fHw7oo/KMYmnin5GdtSHzCIi0pSpGfYZcxNpWXByW7ECZWkSfluUjp9axi9WQCsikpCpdYzvDuV/iRUow9CZXrKBA5sVKIuINEcKls+InqQvLyDdv53KhfUN7CVyhpS2o+/ajtC9il2PfmuWioiIG+8Jdo2pxf/BZbGbXxcVcf811fyxMLJ7kIiINA8KlhvVTXRd/Tz9Vjv6A5tVRM6mJWk8/kFbPL2+RjNhi4jU74nCGjz7M+j76LlmUcjvfkNhYSGFhb/BddgRERFpFtRnuQES7bMsIiIiIiIizYMyyyIiIiIiIiIGBcsiIiIiIiIiBgXLIiIiIiIiIgYFyyIiIiIiIiIGBcsiIiIiIiIiBgXLLdxdS5+ktPRJ3pqXaxa1Gt55j1BaOp27zIKWbmodvg11PBHvchERERERCVKwLPHJn8BbpU+yZJpZkAwvS1p5AN/ovCfYNaYW/wft+a1ZtqQ979fVMn7VCc2tLCIiIiISheZZboBWNc9y/gTemplHVdFDTF1sFgbkMv/NqQxKCy05vmUJN88ud1ayg+WRZLiWpZ533iPMGnyUNd5FvGIWgut+R6jYgHdKqbm0iTrFxg1V5O7PIGva+WahLZ46IiIiIiKtlzLLkiJelpROZRBlzPc+hNd+vcCEFGWjG1M5s24J7bO3qBI4xtYFjmXNJlCGyY/6yaUjq2IGweczYm1H6F7FxqlmmYiIiIiIKLPcAFZmeTKj3pzFwGBW0s+2Bf1YXxJet175E3hrZi67FzzGP8c+ydgce3ldGfNvWUkgVAtlSTdwuTMbatS7a6ljHUC5S0bYO+8RZl1VzvxbjjCudCSBRtHObLC5HlNgvdZ+wdYFjzEryne36nQwFweZWeiIbUfN7lqZ6lCj7sqwLLJbZjm4buO4ATBtOqWFndy/i6Ms7DwZ2wzVzXQscKkD9e6/xcx+H3PfPztj3PmDy+j76LlmoeFbVq76jOtI5/Hx7VhmFgPc8RRFo7M58bfnmLjgHbP0/9/e/cdEfed5HH/ZmtSA/Ii1nOvudqDQ9GytQtfqIbHN7pREYtNG5qwNxiW9iCj9kc1uu0v80ZBqObp2L5fdq4o0Z7DRrGvGTe80NMHZpm2QtGsX6Jl6PYcVdrcuUjWMINHbUveP+c7Mdz58geGHysw8H8kkzuf9me/3y+A/Lz6/AAAAgITFyPKk1Gm9b4uWXDysHe4c7XDnqKFVWlLdoZJis28s0rSsepfW6D1rRPM9+TMKtGWf2+jn0hpfpR76vH7Efns3WiOidW0aiPqsIaNAW3xFuhQaRfV2a3ZhZXg02LyO32sbbXWbATxNd99vfx/Nt+21yPNa4dh+LXtQdu98VQXttnvVtWkgd6V85ndR9YJ8vpXK6wx9Z6/I7T6jArOfTSgo+72vyG0G5ZiYv6d6fRxwac3RMoXvWlymd/PP2J7J6mNuNBbT81uj9hcjfWpbpWXVr6rW/H9WeU15StHpj8YKypJ0p94/kyJlDOr7I3xd5QtzJEmpDzymFWYRAAAASGCE5UmYt7NE2fLr2MbqcFvPtv/QqUC6lqypi+obs6jRU59+09ov5S4YtpOz32sPlz61dUqa+w+RsDYOfq9thHL3GfklzZs/vs23fNta5JeU59k1JTtP+7a9Fh3Emw+pqVPGd5Gn2idcDiPOPlU6jkAHQ3goKJsj7eMx0Fpvu6dfvs/7pYw5Cv+toPmQno56Br+2nOiW5FJBeFp6bM/v3lmkPHXriK3Nt+2QPg6kadma6N/4G4v7pECK3nf+8Ydp+ChFVzSorBF+3Y2nz0mSrn7xoRhXBgAAQDIhLE/Yv6jgwXSp81O1RbU3qOeipLnf1byo9tj426NTju/8ZUlzdG/UCGK/Lp21v7dGgCc0StqttkmExgifKt2vqLa13xr5Dh5ZNZXrlc/29kc3FC/VQxnDv7OR3GtNA59sUJaknvPRG5MFR83NqdOGs5ejR/ljev48uR9MkzrPGNf2608XzT+QDOm7d0u6NNN5SrUT30z1Ssr61pBZCdr/sjweD1OwAQAAkHQIyxN2n+ZmSMpdq+2+c1GvJ0dZ45vozKnWeZ5dw6dOxyR4vJTP9hq23vn+OZrt8IcDZy4tK0xz/EPDzRI64zr8qi7QbHuHmJ7fpbszJOWujL6Wb/S15AAAAAAmh7A8YX/UxYCkzsh65ahX6Tr1mB9JKsGR5iOdknKLhq+tHZW14VUgemft4Ki1zdnLGhhjnXREt46464NTl53W+k6x4LpoY0dtc/14TM/frUsBa3q+7bsIvyY0mwAAAADAWAjLE/af455uXf4Lr7xerw5Ux75V0qZ8lxTwyzds1+NbrPmCeiawltlZMADOzrLvFG1TtUB5kvwnxgiC1jPl5cc6cu3XltL35FeallVPfl31yNwqyJXU2eKwW7VNTM/vNN16JHfqz5ck3f21KszSSNxfK0tS719H2BDs8a064PXKu38rG3wBAAAgqRCWJ6HtyEn1ZSxXxb5YNvMq18PZwX/FvLNw1QvBzajGCo23hBVwC1c6hsxN+xxGa4vLVOIYGq0AONKIs7W21x4iN+1zmIYd3gBtpd7daQ/xbtWPOPXbp8q6Ng3I2L16SlmjwfbNyKpeGD4NO8bn33ukTQOOu6IP97OOzFF3tzZVrBhUulLUG70EO2xF4QNKlaT0R/T0c2YVAAAASFycszwJwXOW67Tet1ZWDg7r8uboHWMTqfJfePVUtpzPrC0u07vDwtTws3RjOc94+Lm9dpEzfJ3OHw59dp5x5rG9Zr9uZLMs8xxgs24a3j/qnGXjjOKB1nr9UmUOzzu8r3lOsePPGf6Mw5nGY56z7Brl5woxvqtAm2r3SC9VF6jH/OwYzx80/LuX4/c7gXOWL81TdtVdZtFSrje9TylHI/y/BQAAABIUYXkSgmF5ilhheViQAsapouYrbf0n6eSue1Q22pSEyoC6Vv//mP2Cf+S5qj/88od6/QOzCgAAACQmpmEDCaahJl1+DWr5xqujrF2+rhOr+6Q/po8alPX4VrmzJXX5CMoAAABIKoRlIOHcpSd2zdWVjIvauttp9sOQDh3uUV5grl4fdfq1V96XHlHvMY88P2k0OwAAAAAJjbAMJCJfqhb9NlO675reMGuVA1qekanDa1PVYNbCGvWyxyOPx6OX95s1AAAAIPGxZnkSpnTNMgAAAABg2mBkGQAAAAAAA2EZAAAAAADDtJ6GLUl9fUNmEwAAAAAANxUjywAAAAAAGAjLAAAAAAAYCMsAAAAAABjiIizfKPlM12q6dK3mMw3NN6sAAAAAAEytuAjLM5oWaVZNtu76WPrbRgIzAAAAAODmiouwHDKjqUkzla4b3zIrAAAAAABMnbgKyyE3sirMJgAAAAAApkxchmUAAAAAAG4mwjIAAAAAAIY4C8t+zegz2wAAAAAAmFpxFpYbNOOSNLRsrb4xSwAAAAAATJE4C8vSHe9ka9a+Xg3VdOlazQlCMwAAAABgysVdWP5mfZeuPSPNrMnWrJon4u8HAAAAAABMe3GWNd/QN7nSnV+8rxlmCQAAAACAKRJnYRkAAAAAgJuPsAwAAAAAgIGwDAAAAACAgbAMAAAAAIAhrsLyjZISfa0ruqOjwSwBAAAAADBl4iIs3yj5TNdqunR9Wbpm/vci3Xne7AEAAAAAwNSZ4XK5bixalKMLFy7o+vXrZv226+sbMpsAAAAAALip4mJkGQAAAACAW4mwDAAAAACAgbAMAAAAAICBsAwAAAAAgIGwDAAAAACAgbAMAAAAAICBsIwpUqGSo+e03Rd6daik2OwDAAAAAPEhOcPyPT/W25WNql1gFuJE8UG96Dun9VVmYSLqtN53Ti/urDAL49SgptIc7XDnaIfXbxYBAAAAIK4kZ1gGAAAAAGAUhGUAAAAAAAwzXC7XjUWLcnThwgVdv37drN92fX1L9dOyTcoPNKnsk/l6u3SxUqza4Om92tDSautdGOybFno/qPajm/Xzr4Lv1q1q1Krv2Lobuj4s15Yz1jTt0sXqDb23rFvVqFUZHXrr0L+pRZIWvKZDj92j9qOb9eVS+7W7dbz+VR2UJD2r2soS6cNyHZ+zR88vDD29vU9sCvad05O5ZmtElzdH7+yOvJ+3s0MVhemRhs7D2rGx2rlm6Gut1a+2NUQaqpq13ZNn6+HXMXex2mwtYVXN2u7J0qm6xWpqNouWx7fqwEuPKLXrv+T5SaNZBQAAAIDbKn5Glr9TokOl9+v/jparrL5cZR92K2XhJtu642dVW2mF6vpgn7dOS/mle/TTe4I9Dh63Pnu0Q4NWOA71LauPDsaxS1F+aaNWKXTfvWrvd2lV2Y9VZOuV/Vijns/8YNQ+Y2nbaK0JrjupPisc73BHXpGgHNxsq6KwV8fC9cPqyl2r7UcPap6knm2LI+1WOLZfKyooFx/Ui/mf2uq1OhXI05O+ZhVEeo3LisIHlCpJ2Q+r3CwCAAAAwG0WP2FZ3TpeHxkl1pnP1SUpa06hJKmo6HFlq1vHj/86/ImWlgNq709R/tJnw203w+DpvSoL37dVLd2DUlqmsu2d+jv01lh9pkrVM1qScUWn6uwjv9V6x+uXMpareLwbgzWv06+sEemgBjWd8EvK08LxXsvyUesXuipJXf8jxpUBAAAATDfxE5b7+9QV1fBrbakvt6ZhF6rIlSL95XNjWnOrvgxIypg/rhHc8eq9bJ8KLrW0bFaZMcV6sLs1OHX7FijIz5PUqx5zCvTuT9UlKXP+ZHe+lnS2V31m23h88Lp+6PEwBRsAAADAtBQ/YXlULmWmWVO1KxujXqOtUU5ogV791WyzZGaNsvB5BAX77Gcon9P26uXKNDsBAAAAQIJIkLDcrb5+SX+JrFeOeoU25IIkqa+302waVXBjsSs6VWdbI22tmwYAAACARJQgYXmc062/Oq9e23rn2Dyrh6bLKHXzn9U3ynTqtna/lLFQBcVGoep7ytYV+T+wbd6lTl0MjDbaXKeFuZI6m0be2XpCyvWm1yuv9002+AIAAAAw7SRIWJYOftKhwbTFen5VLJt5BUeiUxaWaJ1ZUiRMZ98Xulbw+KebshnXhFgBt/AZ592od/9GpwLpWrI5uPN1UJ3We/IcQm+Dei5Kyi1RiRmupfC9lPu9yL2qmic/Dfu5h5UjScqRu3qFWQUAAACA2yp+zlmW7XzjETmH2vD5yVGG943qZ521HDoVuSt0TrLrrHHOsmuE64cE75NlnAldVLRHzy/8atxnLUfUab1vbfTzR52zXKGSo1u0JCNSH3Z2cthYfY17BU6qYY+0pnq5+kL3LD6oF0cK0IGTaihdp56oxhXauv9HeiRdEmctAwAAAJhm4iAsD5lNSBArqg/oR4+m6twxj17eb1YBAAAA4PZJmGnYiDflevrRVOnKH/QuQRkAAADANENYxi22Qlv3e+X1PqWs3/+7PM+9ro/MLgAAAABwmzENGwAAAAAAAyPLAAAAAAAYCMsAAAAAABgIywAAAAAAGGa4XK4bZiMAAAAAAMmMkWUAAAAAAAyEZQAAAAAADIRlAAAAAAAMtrC8QXtWN6l5dZOal26w9wEAAAAAIKk4bPC1QXtWe5T3pVfFn7wdXQIAAAAAIAk4TMN+W0fOXJXS79UPzBIAAAAAAEnAISxb0ubofrMNAAAAAIAkMHJYBgAAAAAgSRGWAQAAAAAwOIbl313pMZsAAAAAAEgajmFZ/Zc1oFyt/MfvmxUAAAAAABKew9FREZVLm/TP35YGzvxcq//3fbMMAAAAAEBCcg7Laa/pt088qp6PS7T5vFkEAAAAACCxOU7D/sG3H9RsdaqdoAwAAAAASEKOYRkAAAAAgGRGWAYAAAAAwEBYBgAAAADAQFgGAAAAAMDgEJY3aM2CVOnLdtWbJQAAAAAAkoDt6KgN2rPaozxJ6v+9/vXEq/qd0RkAAAAAgGTgfM4yAAAAAABJzGEaNgAAAAAAye0OScrJydGsWbPMGgAAAAAASYmRZQAAAAAADIRlAAAAAAAMhGUAAAAAAAyEZQAAAAAADH8HvMYeLW9il8IAAAAASUVORK5CYII=;" vertex="1" parent="1">
          <mxGeometry x="60" y="20" width="651.99" height="280" as="geometry" />
        </mxCell>
        <mxCell id="C_gVZf2LW0LvBU3VUOGp-2" value="&lt;font color=&quot;#ffffff&quot;&gt;1&lt;/font&gt;" style="text;html=1;align=center;verticalAlign=middle;whiteSpace=wrap;rounded=0;" vertex="1" parent="1">
          <mxGeometry x="550" y="20" width="60" height="30" as="geometry" />
        </mxCell>
        <mxCell id="C_gVZf2LW0LvBU3VUOGp-3" value="&lt;font color=&quot;#ffffff&quot;&gt;2&lt;/font&gt;" style="text;html=1;align=center;verticalAlign=middle;whiteSpace=wrap;rounded=0;" vertex="1" parent="1">
          <mxGeometry x="320" y="70" width="60" height="30" as="geometry" />
        </mxCell>
        <mxCell id="C_gVZf2LW0LvBU3VUOGp-4" value="&lt;font color=&quot;#ffffff&quot;&gt;3&lt;/font&gt;" style="text;html=1;align=center;verticalAlign=middle;whiteSpace=wrap;rounded=0;" vertex="1" parent="1">
          <mxGeometry x="100" y="80" width="60" height="30" as="geometry" />
        </mxCell>
        <mxCell id="C_gVZf2LW0LvBU3VUOGp-5" value="&lt;font color=&quot;#ffffff&quot;&gt;3&lt;/font&gt;" style="text;html=1;align=center;verticalAlign=middle;whiteSpace=wrap;rounded=0;" vertex="1" parent="1">
          <mxGeometry x="100" y="100" width="60" height="30" as="geometry" />
        </mxCell>
        <mxCell id="C_gVZf2LW0LvBU3VUOGp-6" value="&lt;font color=&quot;#ffffff&quot;&gt;3&lt;/font&gt;" style="text;html=1;align=center;verticalAlign=middle;whiteSpace=wrap;rounded=0;" vertex="1" parent="1">
          <mxGeometry x="380" y="110" width="60" height="30" as="geometry" />
        </mxCell>
        <mxCell id="C_gVZf2LW0LvBU3VUOGp-7" value="&lt;font color=&quot;#ffffff&quot;&gt;4&lt;/font&gt;" style="text;html=1;align=center;verticalAlign=middle;whiteSpace=wrap;rounded=0;" vertex="1" parent="1">
          <mxGeometry x="100" y="130" width="60" height="30" as="geometry" />
        </mxCell>
        <mxCell id="C_gVZf2LW0LvBU3VUOGp-8" value="&lt;font color=&quot;#ffffff&quot;&gt;5&lt;/font&gt;" style="text;html=1;align=center;verticalAlign=middle;whiteSpace=wrap;rounded=0;" vertex="1" parent="1">
          <mxGeometry x="120" y="145" width="60" height="30" as="geometry" />
        </mxCell>
        <mxCell id="C_gVZf2LW0LvBU3VUOGp-9" value="&lt;font color=&quot;#ffffff&quot;&gt;6&lt;/font&gt;" style="text;html=1;align=center;verticalAlign=middle;whiteSpace=wrap;rounded=0;" vertex="1" parent="1">
          <mxGeometry x="50" y="190" width="60" height="30" as="geometry" />
        </mxCell>
        <mxCell id="C_gVZf2LW0LvBU3VUOGp-10" value="&lt;font color=&quot;#ffffff&quot;&gt;7&lt;/font&gt;" style="text;html=1;align=center;verticalAlign=middle;whiteSpace=wrap;rounded=0;" vertex="1" parent="1">
          <mxGeometry x="50" y="260" width="60" height="30" as="geometry" />
        </mxCell>
        <mxCell id="C_gVZf2LW0LvBU3VUOGp-40" style="edgeStyle=orthogonalEdgeStyle;rounded=0;orthogonalLoop=1;jettySize=auto;html=1;entryX=0.5;entryY=0;entryDx=0;entryDy=0;" edge="1" parent="1" source="C_gVZf2LW0LvBU3VUOGp-23" target="C_gVZf2LW0LvBU3VUOGp-25">
          <mxGeometry relative="1" as="geometry" />
        </mxCell>
        <mxCell id="C_gVZf2LW0LvBU3VUOGp-23" value="I,1" style="ellipse;whiteSpace=wrap;html=1;aspect=fixed;" vertex="1" parent="1">
          <mxGeometry x="334" y="350" width="80" height="80" as="geometry" />
        </mxCell>
        <mxCell id="C_gVZf2LW0LvBU3VUOGp-41" style="edgeStyle=orthogonalEdgeStyle;rounded=0;orthogonalLoop=1;jettySize=auto;html=1;entryX=0.5;entryY=0;entryDx=0;entryDy=0;" edge="1" parent="1" source="C_gVZf2LW0LvBU3VUOGp-25" target="C_gVZf2LW0LvBU3VUOGp-28">
          <mxGeometry relative="1" as="geometry" />
        </mxCell>
        <mxCell id="C_gVZf2LW0LvBU3VUOGp-25" value="2" style="ellipse;whiteSpace=wrap;html=1;aspect=fixed;" vertex="1" parent="1">
          <mxGeometry x="334" y="460" width="80" height="80" as="geometry" />
        </mxCell>
        <mxCell id="C_gVZf2LW0LvBU3VUOGp-28" value="3" style="ellipse;whiteSpace=wrap;html=1;aspect=fixed;" vertex="1" parent="1">
          <mxGeometry x="334" y="570" width="80" height="80" as="geometry" />
        </mxCell>
        <mxCell id="C_gVZf2LW0LvBU3VUOGp-31" style="edgeStyle=orthogonalEdgeStyle;rounded=0;orthogonalLoop=1;jettySize=auto;html=1;" edge="1" parent="1" source="C_gVZf2LW0LvBU3VUOGp-29">
          <mxGeometry relative="1" as="geometry">
            <mxPoint x="500.0000000000002" y="790" as="targetPoint" />
          </mxGeometry>
        </mxCell>
        <mxCell id="C_gVZf2LW0LvBU3VUOGp-36" style="edgeStyle=orthogonalEdgeStyle;rounded=0;orthogonalLoop=1;jettySize=auto;html=1;" edge="1" parent="1" source="C_gVZf2LW0LvBU3VUOGp-29">
          <mxGeometry relative="1" as="geometry">
            <mxPoint x="260" y="780" as="targetPoint" />
          </mxGeometry>
        </mxCell>
        <mxCell id="C_gVZf2LW0LvBU3VUOGp-29" value="4" style="ellipse;whiteSpace=wrap;html=1;aspect=fixed;" vertex="1" parent="1">
          <mxGeometry x="340" y="690" width="80" height="80" as="geometry" />
        </mxCell>
        <mxCell id="C_gVZf2LW0LvBU3VUOGp-33" style="edgeStyle=orthogonalEdgeStyle;rounded=0;orthogonalLoop=1;jettySize=auto;html=1;entryX=1;entryY=0.5;entryDx=0;entryDy=0;" edge="1" parent="1" source="C_gVZf2LW0LvBU3VUOGp-32" target="C_gVZf2LW0LvBU3VUOGp-25">
          <mxGeometry relative="1" as="geometry">
            <Array as="points">
              <mxPoint x="610" y="830" />
              <mxPoint x="610" y="500" />
            </Array>
          </mxGeometry>
        </mxCell>
        <mxCell id="C_gVZf2LW0LvBU3VUOGp-32" value="5" style="ellipse;whiteSpace=wrap;html=1;aspect=fixed;" vertex="1" parent="1">
          <mxGeometry x="460" y="790" width="80" height="80" as="geometry" />
        </mxCell>
        <mxCell id="C_gVZf2LW0LvBU3VUOGp-34" value="siguiente componente" style="text;html=1;align=center;verticalAlign=middle;resizable=0;points=[];autosize=1;strokeColor=none;fillColor=none;" vertex="1" parent="1">
          <mxGeometry x="480" y="470" width="140" height="30" as="geometry" />
        </mxCell>
        <mxCell id="C_gVZf2LW0LvBU3VUOGp-35" value="si" style="text;html=1;align=center;verticalAlign=middle;resizable=0;points=[];autosize=1;strokeColor=none;fillColor=none;" vertex="1" parent="1">
          <mxGeometry x="445" y="708" width="30" height="30" as="geometry" />
        </mxCell>
        <mxCell id="C_gVZf2LW0LvBU3VUOGp-39" style="edgeStyle=orthogonalEdgeStyle;rounded=0;orthogonalLoop=1;jettySize=auto;html=1;entryX=0.5;entryY=0;entryDx=0;entryDy=0;" edge="1" parent="1" source="C_gVZf2LW0LvBU3VUOGp-37" target="C_gVZf2LW0LvBU3VUOGp-38">
          <mxGeometry relative="1" as="geometry" />
        </mxCell>
        <mxCell id="C_gVZf2LW0LvBU3VUOGp-37" value="6" style="ellipse;whiteSpace=wrap;html=1;aspect=fixed;" vertex="1" parent="1">
          <mxGeometry x="220" y="780" width="80" height="80" as="geometry" />
        </mxCell>
        <mxCell id="C_gVZf2LW0LvBU3VUOGp-38" value="7,F" style="ellipse;whiteSpace=wrap;html=1;aspect=fixed;" vertex="1" parent="1">
          <mxGeometry x="340" y="860" width="80" height="80" as="geometry" />
        </mxCell>
        <mxCell id="C_gVZf2LW0LvBU3VUOGp-42" style="edgeStyle=orthogonalEdgeStyle;rounded=0;orthogonalLoop=1;jettySize=auto;html=1;entryX=0.428;entryY=0.013;entryDx=0;entryDy=0;entryPerimeter=0;" edge="1" parent="1" source="C_gVZf2LW0LvBU3VUOGp-28" target="C_gVZf2LW0LvBU3VUOGp-29">
          <mxGeometry relative="1" as="geometry" />
        </mxCell>
      </root>
    </mxGraphModel>
  </diagram>
</mxfile>
